<?xml version="1.0" encoding="UTF-8" standalone="no"?>
<svg
   xmlns:dc="http://purl.org/dc/elements/1.1/"
   xmlns:cc="http://creativecommons.org/ns#"
   xmlns:rdf="http://www.w3.org/1999/02/22-rdf-syntax-ns#"
   xmlns:svg="http://www.w3.org/2000/svg"
   xmlns="http://www.w3.org/2000/svg"
   xmlns:sodipodi="http://sodipodi.sourceforge.net/DTD/sodipodi-0.dtd"
   xmlns:inkscape="http://www.inkscape.org/namespaces/inkscape"
   width="84.440422mm"
   height="50.730125mm"
   viewBox="0 0 84.440422 50.730125"
   version="1.1"
   id="svg6267"
   inkscape:version="1.0.1 (3bc2e813f5, 2020-09-07)"
   sodipodi:docname="hydropathy-plot-1.svg"
   inkscape:export-filename="/home/tianyi/Github/ox/content/img/hydropathy-plot-1.png"
   inkscape:export-xdpi="96"
   inkscape:export-ydpi="96">
  <defs
     id="defs6261">
    <inkscape:path-effect
       effect="powerstroke"
       id="path-effect6275"
       is_visible="true"
       lpeversion="1"
       offset_points="1,0.1322915"
       sort_points="true"
       interpolator_type="CubicBezierJohan"
       interpolator_beta="0.2"
       start_linecap_type="zerowidth"
       linejoin_type="extrp_arc"
       miter_limit="4"
       scale_width="1"
       end_linecap_type="zerowidth" />
  </defs>
  <sodipodi:namedview
     id="base"
     pagecolor="#ffffff"
     bordercolor="#666666"
     borderopacity="1.0"
     inkscape:pageopacity="0.0"
     inkscape:pageshadow="2"
     inkscape:zoom="1.979899"
     inkscape:cx="-1.6869387"
     inkscape:cy="129.08502"
     inkscape:document-units="mm"
     inkscape:current-layer="layer1"
     inkscape:document-rotation="0"
     showgrid="false"
     inkscape:window-width="1496"
     inkscape:window-height="1013"
     inkscape:window-x="0"
     inkscape:window-y="0"
     inkscape:window-maximized="0" />
  <metadata
     id="metadata6264">
    <rdf:RDF>
      <cc:Work
         rdf:about="">
        <dc:format>image/svg+xml</dc:format>
        <dc:type
           rdf:resource="http://purl.org/dc/dcmitype/StillImage" />
        <dc:title></dc:title>
      </cc:Work>
    </rdf:RDF>
  </metadata>
  <g
     inkscape:label="Layer 1"
     inkscape:groupmode="layer"
     id="layer1"
     transform="translate(-43.287129,-12.107408)">
    <path
       style="fill:none;stroke:#000000;stroke-width:0.264583px;stroke-linecap:butt;stroke-linejoin:miter;stroke-opacity:1"
       d="M 50.251492,12.339882 V 61.921881"
       id="path6269" />
    <path
       style="fill:none;stroke:#000000;stroke-width:0.264583px;stroke-linecap:butt;stroke-linejoin:miter;stroke-opacity:1"
       d="M 50.065826,39.120847 H 127.11878"
       id="path6271" />
    <path
       style="fill:#000000;stroke-width:0.264583"
       id="path6277"
       d="m 49.70296,13.249156 c -0.311491,0.223946 -0.586843,0.492028 -0.839758,0.77929 -0.0775,0.102521 -0.168736,0.196274 -0.24111,0.302747 -0.01257,0.442521 0.538893,-0.357854 0.593051,-0.439219 0.193026,-0.28674 0.382119,-0.576062 0.57132,-0.865334 0.138321,-0.213762 0.272698,-0.429946 0.420764,-0.637184 0.03514,-0.04716 0.07277,-0.09242 0.110109,-0.137822 0.0077,-0.008 0.03496,-0.04458 0.05082,-0.06311 0.01431,-0.01612 0.02971,-0.03259 0.04266,-0.04927 0.101703,-0.127229 -0.285396,0.159501 -0.383707,0.284834 -0.02649,0.03378 0.05571,0.06532 0.0832,0.09829 0.112119,0.134451 0.221927,0.270802 0.333819,0.405447 0.225176,0.261785 0.438267,0.533487 0.653981,0.803 0.09924,0.118866 0.198605,0.237621 0.299474,0.355103 0.01154,0.01093 0.01974,0.02364 0.0267,0.03706 0,0 0.430035,-0.275838 0.430035,-0.275838 v 0 c -0.01116,-0.0051 -0.02822,-0.0085 -0.03059,-0.02055 -0.111178,-0.108234 -0.216066,-0.222879 -0.31696,-0.340703 -0.222364,-0.264695 -0.437861,-0.535041 -0.661638,-0.798575 -0.110638,-0.135064 -0.219096,-0.271353 -0.325485,-0.40979 -0.0258,-0.03358 -0.03506,-0.10485 -0.07722,-0.100891 -0.169733,0.01594 -0.325149,0.102623 -0.487725,0.153934 -5.29e-4,6.35e-4 -0.0011,0.0012 -0.0019,0.0019 -0.01519,0.01597 -0.02954,0.03292 -0.04327,0.05033 -0.01857,0.02199 -0.0477,0.0516 -0.05887,0.06988 -0.02612,0.04012 -0.04653,0.08348 -0.07208,0.123991 -0.133033,0.210128 -0.267793,0.419172 -0.400807,0.629313 -0.188169,0.291669 -0.379376,0.581346 -0.57694,0.866759 -0.193828,0.279322 -0.204811,0.257357 0.278474,0.05571 0.04888,-0.09991 0.118716,-0.186379 0.189894,-0.271592 0.246481,-0.288228 0.522335,-0.552867 0.838581,-0.764152 0,0 -0.404945,0.156447 -0.404945,0.156447 z" />
    <path
       style="fill:#000000;stroke-width:0.264583"
       id="path6287"
       d="m 125.29779,37.316103 c -0.2217,-0.0335 -0.44693,-0.02969 -0.66907,-0.05716 -1.00016,0.02222 -0.34489,0.440069 -0.17636,0.543936 0.0575,0.03542 0.42413,0.248804 0.46661,0.273584 0.4605,0.260602 0.92515,0.512665 1.36513,0.807244 0.17673,0.118534 0.34915,0.243496 0.52987,0.355997 0.0635,0.03499 0.12505,0.07406 0.19005,0.106257 0.0333,0.0049 0.0343,5.29e-4 0.07,0.02829 0.0403,0.03668 0.0811,0.07488 0.1117,0.119727 -0.27969,0.06918 0.74152,-0.432178 0.31946,-0.227153 -0.36833,0.172472 -0.75138,0.309581 -1.13662,0.438616 -0.32798,0.102759 -0.66185,0.184991 -0.99167,0.28139 -0.21558,0.0683 -0.43004,0.14011 -0.64539,0.209139 -0.12825,0.03549 -0.25211,0.08368 -0.37566,0.132602 -0.0806,0.0332 -0.15974,0.06972 -0.23805,0.107936 -0.99818,0.529061 -1.08937,0.543129 -0.38062,0.35233 0,0 0.0341,-0.02103 0.0341,-0.02103 v 0 c 1.21521,-0.624629 -0.69565,0.346739 -0.2863,0.178096 0.079,-0.04623 0.16138,-0.08618 0.24486,-0.12373 0.13226,-0.0575 0.26513,-0.113755 0.40185,-0.159943 0.22196,-0.07814 0.44537,-0.152008 0.66781,-0.228745 0.3411,-0.11203 0.69024,-0.197697 1.0313,-0.310113 0.39492,-0.132747 0.78628,-0.276736 1.16523,-0.450594 0.23551,-0.112188 0.87644,-0.269562 0.70176,-0.496014 -0.0518,-0.02373 -0.0919,-0.07048 -0.13636,-0.104823 -0.0197,-0.02045 -0.0352,-0.04733 -0.0501,-0.06316 -0.0683,-0.02593 -0.13457,-0.05695 -0.19863,-0.09219 -0.18854,-0.105746 -0.36694,-0.228444 -0.5523,-0.339503 -0.45942,-0.273632 -0.93755,-0.513898 -1.39633,-0.788699 -0.1999,-0.122383 -0.40409,-0.241102 -0.59197,-0.38191 -0.0324,-0.02429 -0.055,-0.08778 -0.094,-0.07695 -0.18162,0.05042 -0.34072,0.161334 -0.50982,0.244586 -0.0132,0.0065 0.0279,-0.0095 0.0418,-0.01421 0.2436,-0.0029 0.48697,0.02151 0.73072,0.01283 0,0 0.357,-0.256659 0.357,-0.256659 z" />
    <text
       xml:space="preserve"
       style="font-style:normal;font-weight:normal;font-size:4.23333px;line-height:1.25;font-family:sans-serif;fill:#000000;fill-opacity:1;stroke:none;stroke-width:0.264583"
       x="-55.451866"
       y="46.373226"
       id="text6291"
       transform="rotate(-90)"><tspan
         sodipodi:role="line"
         id="tspan6289"
         x="-55.451866"
         y="46.373226"
         style="font-size:4.23333px;stroke-width:0.264583">hydropathy index</tspan></text>
    <path
       style="fill:#0000ff;stroke-width:0.264583"
       id="path6315"
       d="m 50.296214,39.326216 c 0.256792,0.40267 0.511231,0.806831 0.762379,1.213046 0.206793,0.336796 0.394017,0.685046 0.579098,1.034084 0.125048,0.250114 0.259266,0.495451 0.38816,0.743548 0.0951,0.190569 0.157454,0.394727 0.232003,0.593635 0.07785,0.195694 0.15984,0.389607 0.24499,0.582216 0.118044,0.29038 0.220607,0.586761 0.315648,0.885362 0.07662,0.245528 0.159438,0.489238 0.221732,0.738936 0.0149,0.06297 0.03327,0.125294 0.04436,0.189079 0.0011,0.02569 1.38e-4,0.05136 -0.0011,0.07702 4.2e-5,0.02506 -5.29e-4,0.05013 -0.0013,0.07518 -8.4e-5,0.0043 2.15e-4,0.0085 2.65e-4,0.01265 0.01161,0.02432 0.01669,0.05091 0.02093,0.07771 0.0056,0.05346 0.0093,0.107321 0.009,0.161105 -0.0024,0.02585 0.0071,0.05159 0.01529,0.07592 0.01074,0.02585 0.01058,0.05327 0.01471,0.08051 0.02006,0.07406 0.02,0.151048 0.03445,0.225975 0.02225,0.07045 0.03778,0.143386 0.06253,0.212987 0.009,0.02487 0.02037,0.04866 0.03241,0.07212 0.0016,0.0039 -5.29e-4,0.02148 -5.29e-4,0.03593 -5.29e-4,0.0445 -0.0026,0.08891 -0.0029,0.133414 -0.0047,0.07408 -0.0039,0.148333 -0.0039,0.22253 -0.006,0.09982 0.006,0.198207 0.01601,0.297249 0.0024,0.129659 0.0297,0.25559 0.05368,0.382355 0.0177,0.09958 0.02413,0.200204 0.04716,0.298809 0.02907,0.0986 0.05213,0.198877 0.07337,0.299419 0.0079,0.01982 0.0061,0.03856 0.0029,0.05682 0.310624,-0.173866 0.270304,-0.172956 0.311119,-0.46019 0.02387,-0.226624 0.04026,-0.453935 0.05132,-0.681519 0.01124,-0.344707 0.04087,-0.688372 0.07169,-1.031767 0.0394,-0.433154 0.07853,-0.866269 0.130503,-1.29812 0.07362,-0.494067 0.135909,-0.989377 0.19313,-1.485558 0.04118,-0.347705 0.08385,-0.695127 0.121767,-1.043199 0.02373,-0.313222 0.07234,-0.622785 0.130857,-0.93108 0.07205,-0.414443 0.146471,-0.828352 0.233508,-1.239943 0.0989,-0.466069 0.230741,-0.923856 0.371047,-1.378836 0.133937,-0.407152 0.248345,-0.819793 0.359571,-1.23353 0.14033,-0.514199 0.296966,-1.023607 0.461153,-1.530617 0.148116,-0.456534 0.277167,-0.918935 0.409175,-1.3803 0.09215,-0.340535 0.157176,-0.687438 0.235408,-1.031203 0.07039,-0.307689 0.174204,-0.60642 0.2925,-0.898617 0.09582,-0.214612 0.196543,-0.426884 0.290581,-0.642314 0.06947,-0.168997 0.143116,-0.336121 0.217704,-0.502904 0.01725,-0.04188 0.03951,-0.08147 0.05823,-0.122629 -9.5e-5,-5.29e-4 -1.91e-4,-7.93e-4 -2.65e-4,-0.0013 -0.07553,0.06775 -0.170577,0.118637 -0.226584,0.203237 -0.02318,0.035 0.160407,0.507807 0.181793,0.563846 0.103912,0.259562 0.184126,0.527738 0.258387,0.797028 0.0123,0.06956 0.03683,0.134565 0.07517,0.193591 0.0061,0.01117 0.01752,0.01786 0.02638,0.02368 0.05723,0.04221 0.105706,0.09453 0.15548,0.144928 0.07084,0.07358 0.146889,0.141814 0.220186,0.212878 0.274889,0.139634 0.559051,-0.47099 0.646668,-0.636839 0.210587,-0.416533 0.407654,-0.839525 0.579877,-1.273325 0.07046,-0.177107 0.144148,-0.354222 0.173958,-0.543409 0.01897,-0.186119 -0.0057,-0.0892 -0.265282,0.08064 -0.04555,0.11666 -0.05328,0.2412 -0.05965,0.364858 0.0032,0.218842 0.05067,0.435467 0.08531,0.651147 0.04778,0.316397 0.08866,0.633609 0.15072,0.947624 0.01794,0.09233 0.03733,0.184436 0.06149,0.275341 0.01529,0.04434 0.68983,-0.547179 -0.0077,0.02376 0.02872,0.241237 0.02738,0.485018 0.02879,0.727631 0.0016,0.140067 0.0031,0.281011 0.03712,0.417388 0.0088,0.0304 0.02069,0.05933 0.03603,0.08675 0.213514,-0.05551 0.323824,-0.19614 0.4747,-0.332644 0.05785,-0.04907 0.117636,-0.09616 0.182118,-0.136274 0.09374,-0.05481 -0.158565,0.105066 -0.201149,0.185801 -0.01937,0.03672 0.03354,0.07603 0.04752,0.11512 0.06771,0.189331 0.109987,0.38689 0.156104,0.582147 0.09724,0.490768 0.188515,0.982842 0.270782,1.476354 0.05987,0.312261 0.11788,0.624554 0.170942,0.938069 0.02973,0.184653 0.06714,0.368041 0.108077,0.550514 0.02201,0.138795 0.04553,0.277426 0.06665,0.416367 0.02233,0.217212 0.06391,0.431718 0.106277,0.645718 0.04886,0.256032 0.0959,0.512299 0.138359,0.769482 0.04655,0.258607 0.111392,0.513472 0.155257,0.772557 0.01352,0.119004 0.04812,0.233712 0.07206,0.350586 0.01625,0.07964 0.01916,0.160997 0.02853,0.241565 0.01045,0.127685 0.02339,0.254886 0.05005,0.380291 0.02545,0.132458 0.04602,0.265636 0.07223,0.397973 0.03547,0.164825 0.06516,0.330859 0.111991,0.492924 0.03408,0.09817 0.04493,0.201649 0.06689,0.302519 0.02233,0.09045 0.05423,0.177837 0.0765,0.268306 0.01093,0.04539 0.01879,0.0916 0.03221,0.136335 0.01966,0.09708 0.03312,0.195117 0.0519,0.292399 0.02397,0.128833 0.03592,0.259307 0.0603,0.388069 0.02463,0.143746 0.07424,0.281162 0.114893,0.420754 0.05945,0.238429 0.108265,0.47929 0.16677,0.717973 0.05007,0.228309 0.1192,0.45184 0.167724,0.680445 0.04844,0.23372 0.09859,0.467114 0.145249,0.701209 0.04185,0.214376 0.09535,0.426107 0.145891,0.638495 0.02577,0.127942 0.0596,0.253889 0.09785,0.37859 0.009,0.0293 0.01823,0.05866 0.0322,0.08584 0.145893,0.07926 0.169108,-0.07999 0.363733,-0.234836 0.05343,-0.33151 0.09805,-0.663781 0.138766,-0.997048 0.03988,-0.3669 0.08404,-0.73342 0.120965,-1.100637 0.0093,-0.08294 0.01945,-0.165989 0.02658,-0.249029 -0.08846,0.07853 -0.200691,0.136544 -0.265377,0.235575 -0.02455,0.0376 0.01654,0.08829 0.02503,0.132397 0.05342,0.277469 0.118147,0.552032 0.183605,0.826863 0.08652,0.391033 0.202086,0.774305 0.31456,1.158353 0.08835,0.317175 0.167228,0.63685 0.253717,0.954532 0.0593,0.217628 0.128739,0.432165 0.201544,0.645576 0.04952,0.147513 0.08076,0.30013 0.118414,0.450882 0.0315,0.134966 0.06567,0.269062 0.09163,0.405251 0.02695,0.124754 0.03486,0.254461 0.07806,0.37523 0.04603,0.139424 0.0393,0.142568 0.314976,-0.220237 0.0034,-0.0044 -0.01945,-0.379881 -0.02032,-0.397216 -0.0127,-0.24882 -0.01519,-0.342249 -0.02437,-0.592876 -0.01384,-0.398658 -0.03037,-0.798282 0.0069,-1.196036 0.01336,-0.07535 0.01302,-0.155458 0.03755,-0.228465 0.09889,-0.04289 -0.178898,0.111236 -0.244721,0.191109 -0.0035,0.0042 0.19484,0.280514 0.221912,0.316603 0.08647,0.13 0.187449,0.24566 0.303276,0.349766 0.04841,0.04207 0.100332,0.08088 0.144579,0.12727 0.0033,0.0027 0.0066,0.0054 0.0099,0.0081 0.09753,-0.08027 0.206248,-0.148629 0.2926,-0.240829 0.03661,-0.03909 0.08271,-0.349583 0.09592,-0.416083 0.03582,-0.185309 0.06562,-0.37151 0.075,-0.560105 0.0061,-0.206229 0.03616,-0.410458 0.05978,-0.615108 0.02342,-0.168593 0.01535,-0.338093 -7.94e-4,-0.506754 -0.0097,-0.101605 -0.02106,-0.203033 -0.03162,-0.304551 -5.8e-5,-0.02011 -2.64e-4,-0.03082 -0.0097,-0.048 -0.0016,-0.0108 -0.0037,-0.02344 -0.0053,-0.03503 -7.94e-4,-0.0016 -0.0011,-0.0033 -0.0019,-0.0049 -0.0066,-0.07335 0.0056,-0.147416 0.01228,-0.220501 0.02077,-0.139171 0.05067,-0.276593 0.07236,-0.415679 0.02757,-0.228465 0.04829,-0.458065 0.07546,-0.68679 0.04431,-0.417909 0.115805,-0.83177 0.194238,-1.244401 0.163976,-0.79115 0.269804,-1.592086 0.354722,-2.395048 0.04876,-0.745485 0.138538,-1.48539 0.266001,-2.22118 0.127029,-0.656138 0.229849,-1.316215 0.319569,-1.978364 0.08842,-0.6996 0.161835,-1.400937 0.247396,-2.100884 0.04701,-0.392033 0.08957,-0.783905 0.163293,-1.17198 0.06355,-0.264014 0.133538,-0.526891 0.217379,-0.785243 0.07047,-0.23871 0.206489,-0.443524 0.35228,-0.64185 0.08986,-0.114634 0.182017,-0.227759 0.281524,-0.334219 0.09456,-0.08946 0.03627,-0.174869 -0.242826,0.171688 -0.02053,0.02548 0.02334,0.06112 0.03502,0.09169 0.177133,0.436681 0.319563,0.885666 0.453067,1.33722 0.133805,0.484552 0.25894,0.971367 0.401643,1.453417 0.0546,0.179316 0.119337,0.356222 0.202133,0.524573 0.297503,0.396804 0.397632,-0.588933 0.404016,-0.62865 0.169733,-0.909526 0.308489,-1.822738 0.401045,-2.743321 0.07626,-0.811967 0.06861,-1.627952 0.0834,-2.442411 0.008,-0.336696 0.02275,-0.673225 0.04917,-1.008992 0.03029,-0.119983 -0.03309,-0.405646 -0.192093,0.103545 -0.01677,0.05371 0.05385,0.09882 0.08078,0.148225 0.252021,0.54851 0.485786,1.105667 0.720865,1.661708 0.22922,0.547846 0.445739,1.100952 0.646203,1.659948 0.150222,0.432279 0.305178,0.862888 0.477126,1.287036 0.106328,0.282186 0.259138,0.541094 0.425513,0.791099 0.07238,0.07788 0.115149,0.199782 0.203838,0.262427 0.245033,-0.03048 0.518112,-0.322799 0.706321,-0.486473 0.163899,-0.146725 0.331917,-0.288724 0.497983,-0.432957 0.01016,-0.0088 0.04174,-0.03388 0.03051,-0.02646 -0.07134,0.04712 -0.150577,0.08532 -0.211082,0.145725 -0.01087,0.01085 0.0258,0.01797 0.03437,0.03071 0.01535,0.02281 0.02694,0.04824 0.0361,0.07416 0.03357,0.09501 0.06156,0.24089 0.08191,0.333629 0.09673,0.580935 0.172522,1.16505 0.271711,1.745628 0.0482,0.304244 0.121344,0.603385 0.186309,0.9042 0.03746,0.188455 0.05862,0.379505 0.0952,0.56809 0.03391,0.149963 0.08687,0.294523 0.131969,0.441311 0.0109,0.03439 0.02151,0.0692 0.02992,0.104162 0.402849,-0.269881 0.305739,-0.177311 0.36739,-0.518782 0.07836,-0.376179 0.208351,-0.738045 0.342577,-1.097116 0.108667,-0.282755 0.219988,-0.564467 0.32798,-0.847482 0.07831,-0.221363 0.14691,-0.202305 -0.251539,0.0575 -0.0013,0.222052 0.0021,0.44399 0.0076,0.665967 0.0072,0.425548 0.03107,0.850575 0.06656,1.274643 0.02684,0.303025 0.05752,0.605513 0.110421,0.90518 0.07506,0.37475 0.141465,0.751149 0.213421,1.126482 0.09027,0.421404 0.184018,0.841777 0.267382,1.264697 0.0674,0.342721 0.126352,0.686975 0.189156,1.030542 0.05978,0.31102 0.126408,0.620011 0.20274,0.927383 0.06905,0.288486 0.15794,0.57168 0.238024,0.857234 0.08173,0.306295 0.168074,0.610989 0.2647,0.912929 0.05226,0.156943 0.100923,0.315066 0.154662,0.471511 0.0099,0.02845 0.01995,0.05683 0.03047,0.08505 -0.0041,0.06429 0.01974,0.159816 0.03487,0.231712 0.03166,0.150394 0.05817,0.301767 0.09034,0.452069 0.04649,0.18116 0.07763,0.365647 0.116139,0.548521 0.06337,0.269761 0.118118,0.541205 0.166815,0.813972 0.05884,0.293545 0.09419,0.590786 0.132802,0.887421 0.03802,0.305011 0.08191,0.609126 0.125079,0.913442 0.03267,0.207637 0.06523,0.415319 0.09325,0.623644 0.0035,0.02461 0.0056,0.04931 0.0091,0.07389 0.03477,0.05843 0.04574,0.126119 0.06003,0.191645 0.01188,0.103868 0.05419,0.199224 0.08689,0.297247 0.01087,0.0378 0.0199,0.07606 0.02445,0.115122 -0.0061,0.151601 0.358024,-0.1114 0.414544,-0.258709 0.04774,-0.09678 0.02183,-0.235619 0.01968,-0.343556 -0.0074,-0.303747 0.02275,-0.606518 0.04613,-0.908955 0.03184,-0.42871 0.0433,-0.858324 0.08521,-1.286309 0.04141,-0.395235 0.132668,-0.782836 0.225938,-1.168405 0.08893,-0.364321 0.20855,-0.719926 0.319747,-1.077767 0.09083,-0.288489 0.156067,-0.584171 0.206454,-0.882153 -0.0042,0.0024 0.04319,-0.238683 0.04284,-0.238416 -0.312187,0.232717 -0.346498,0.147799 -0.184211,0.301818 0.301583,0.345723 0.578189,0.712962 0.847537,1.084138 0.02918,0.03301 0.238744,0.369062 0.262911,0.354817 0.126558,-0.07461 0.242044,-0.166581 0.363064,-0.24987 0.04945,-0.394522 0.09276,-0.789791 0.140388,-1.184547 0.02784,-0.131625 0.02,-0.270452 0.0495,-0.401532 0.03522,-0.213884 0.08822,-0.423783 0.145926,-0.632521 0.03525,-0.120586 0.07017,-0.241411 0.110437,-0.360449 0.0096,-0.02022 0.0077,-0.03254 0.0084,-0.05564 -0.01011,-0.0709 -0.03368,-0.138817 -0.05312,-0.207495 -0.0039,-0.01492 -0.0072,-0.02992 -0.01003,-0.04505 -0.400423,0.249938 -0.410273,0.184917 -0.225837,0.465767 0.08762,0.120742 0.179929,0.238133 0.272208,0.355362 0.03634,0.045 0.0724,0.09019 0.106913,0.136591 0.248084,0.03352 0.37183,-0.184454 0.434478,-0.373735 0.04688,-0.133379 0.08861,-0.268123 0.11408,-0.407273 0.02045,-0.225136 0.03807,-0.450429 0.06619,-0.674865 0.09738,-0.538308 0.201766,-1.075425 0.304186,-1.612839 0.136155,-0.737735 0.293968,-1.470969 0.47553,-2.198796 0.191593,-0.728599 0.388284,-1.455811 0.601546,-2.17838 0.196435,-0.593442 0.348155,-1.197827 0.46848,-1.810719 0.139133,-0.687779 0.246575,-1.380762 0.34082,-2.075907 0.08579,-0.635794 0.158835,-1.273194 0.23296,-1.910422 0.0543,-0.488259 0.122217,-0.97491 0.191858,-1.461182 0.0599,-0.435959 0.130455,-0.870448 0.204787,-1.304163 0.05762,-0.337392 0.143724,-0.668619 0.234513,-0.99829 0.07577,-0.263451 0.168143,-0.521596 0.256728,-0.780874 0.0348,-0.10572 0.06235,-0.213523 0.09918,-0.318595 0.02888,-0.06903 0.05586,-0.138813 0.08341,-0.208392 0.01416,-0.03864 0.03178,-0.07587 0.04732,-0.113926 0.12251,0.03993 -0.229925,0.121964 -0.325786,0.208069 -0.0034,0.0031 0.0141,0.413426 0.015,0.431029 0.01966,0.413339 0.109477,0.816559 0.21757,1.214368 0.08332,0.294479 0.188386,0.582076 0.278011,0.874591 0.06794,0.229616 0.140052,0.457634 0.240347,0.675301 0.173916,0.361321 0.149429,0.23997 0.589135,-0.05298 0.388736,-0.577125 0.726868,-1.187606 1.052311,-1.802223 0.139396,-0.265952 0.269843,-0.536521 0.381056,-0.815421 0.01582,-0.03336 0.01823,-0.06595 0.0046,-0.10007 -0.02021,-0.08894 -0.01389,-0.18513 -0.01199,-0.276444 0.0058,-0.16487 0.07145,-0.302124 -0.291549,0.157937 -0.0289,0.03662 -0.0013,0.09328 -0.0021,0.139926 -0.01254,0.538814 0.0489,1.073799 0.120647,1.606667 0.103,0.754893 0.23563,1.505235 0.381183,2.252945 0.138261,0.684321 0.307623,1.36171 0.461431,2.042565 0.135572,0.587301 0.240083,1.180962 0.330927,1.776616 0.04352,0.277419 0.0799,0.556112 0.09524,0.836602 -0.0032,0.09483 0.01617,0.1851 0.04958,0.27313 0.0066,0.01881 0.01595,0.03598 0.02682,0.05246 -0.01852,0.01966 0.005,0.176633 0.01061,0.225557 0.03404,0.303075 0.08485,0.603919 0.127577,0.90583 0.05163,0.328213 0.101039,0.656796 0.154813,0.984663 0.03494,0.221408 0.08519,0.439978 0.140068,0.657174 0.04032,0.177456 0.06974,0.357156 0.101859,0.536223 0.03905,0.243084 0.07014,0.487403 0.0981,0.731986 0.02548,0.261668 0.06339,0.521817 0.09427,0.782828 0.01624,0.142341 0.04199,0.283329 0.05719,0.425784 0.0065,0.134564 0.03714,0.266136 0.06233,0.398057 0.05971,0.293016 0.112151,0.587428 0.16688,0.881393 0.03195,0.195922 0.07354,0.390361 0.09895,0.587299 0.0063,0.108055 0.03428,0.212444 0.05592,0.317857 0.02498,0.116221 0.04777,0.232838 0.07448,0.348715 0.005,0.03196 0.01812,0.06056 0.02877,0.09047 -0.0061,0.0034 0.01199,0.105979 0.01842,0.146852 0.06319,0.305271 0.116665,0.612396 0.175289,0.918548 0.06551,0.314571 0.130206,0.629508 0.210253,0.940769 0.03536,0.132022 0.06679,0.265155 0.09213,0.399476 0.03701,0.211388 0.0077,0.04127 0.448323,-0.245013 0.01474,-0.09986 0.02066,-0.20021 0.0236,-0.301027 0.0011,-0.224726 -0.0019,-0.449455 -0.0031,-0.674179 -0.0024,-0.347694 -0.0034,-0.695383 -0.0038,-1.043085 -0.0013,-0.340524 0.04999,-0.677384 0.113499,-1.010912 0.04867,-0.216647 0.07688,-0.435687 0.09193,-0.656911 0.01876,-0.269089 0.02326,-0.538787 0.03101,-0.808318 0.0097,-0.249401 0.03935,-0.497382 0.05493,-0.746424 0.01283,-0.170071 0.02766,-0.339812 0.04939,-0.508971 0.02048,-0.151627 0.04456,-0.302699 0.06965,-0.453617 0.01416,-0.105185 0.02577,-0.210421 0.04213,-0.315301 0.02141,-0.09441 0.03447,-0.190273 0.05199,-0.285417 0.02455,-0.09573 0.02548,-0.194728 0.03883,-0.292216 0.01437,-0.148678 0.02834,-0.297633 0.03945,-0.446678 0.0089,-0.255926 0.0091,-0.511749 0.02164,-0.767612 0.0118,-0.187431 0.02146,-0.374949 0.02559,-0.56271 0.0027,-0.157398 0.0019,-0.314852 0.0016,-0.472271 -0.0035,-0.158647 -5.29e-4,-0.316635 0.01328,-0.474681 0.02103,-0.151164 0.04484,-0.302035 0.07173,-0.452273 0.03134,-0.175872 0.08192,-0.346848 0.135591,-0.516901 0.05324,-0.159819 0.118155,-0.315193 0.181462,-0.471165 0.05876,-0.136697 0.109654,-0.276698 0.173564,-0.411128 0.05349,-0.11091 0.111995,-0.219165 0.167018,-0.329303 0.01918,-0.04222 0.04496,-0.08163 0.06077,-0.125314 -0.396444,0.285167 -0.348578,0.141224 -0.160525,0.428177 0.240321,0.439066 0.449437,0.893792 0.687347,1.33422 0.163434,0.290743 0.337156,0.575487 0.507662,0.862089 0.229214,0.37351 0.757901,-0.55781 0.860462,-0.709734 0.47458,-0.681424 0.976233,-1.347488 1.345239,-2.093939 0.191813,-0.406339 0.300353,-0.843219 0.419214,-1.274479 0.0632,-0.230762 0.109061,-0.465693 0.182208,-0.693711 0.0208,-0.06052 0.0398,-0.122129 0.06814,-0.179621 0.105368,-0.08814 -0.25055,0.125886 -0.344641,0.225981 -0.01799,0.01913 0.101113,0.398809 0.131056,0.518652 0.138652,0.619517 0.23985,1.246442 0.364564,1.868839 0.08308,0.380527 0.168384,0.761006 0.284935,1.132885 0.04257,0.109096 0.06061,0.277892 0.195816,0.299249 0.14605,-0.09244 0.300434,-0.17286 0.43815,-0.277309 0.06122,-0.04643 0.102335,-0.11465 0.153836,-0.171673 0.07406,-0.08201 0.148487,-0.163684 0.222859,-0.245409 0.274095,-0.301196 0.548388,-0.601924 0.818875,-0.906375 0.260146,-0.295828 0.517541,-0.594135 0.767982,-0.898242 0.113104,-0.132765 0.266205,-0.373544 -0.321686,0.189791 -0.02646,0.02535 -0.0057,0.07306 -0.0085,0.109596 -0.02307,0.375923 -2.64e-4,0.751356 0.02983,1.126056 0.04711,0.545357 0.118608,1.088041 0.187802,1.630921 0.052,0.426476 0.100703,0.853019 0.190563,1.273389 0.08546,0.366086 0.190952,0.727075 0.282154,1.091711 0.07826,0.293327 0.119163,0.593619 0.15562,0.89432 0.02432,0.260787 0.05151,0.521076 0.08438,0.780915 0.02911,0.248259 0.08335,0.492448 0.120747,0.739371 0.03632,0.257966 0.08676,0.513519 0.138754,0.768696 0.0927,0.417097 0.1969,0.831324 0.31443,1.242073 0.081,0.264682 0.15985,0.529969 0.238,0.795489 0.0334,0.110617 0.0652,0.221514 0.0945,0.333264 0.0464,0.206346 0.0886,0.41343 0.14299,0.617871 0.0305,0.123417 0.0648,0.245755 0.10088,0.367657 0.006,0.0205 0.0123,0.04089 0.0187,0.06127 0.0151,0.06555 0.0319,0.131231 0.0448,0.197456 0.009,0.04816 0.0147,0.0967 0.0192,0.145389 0.0568,0.213831 0.4413,-0.174676 0.45547,-0.358958 0.0139,-0.204338 0.0153,-0.40916 0.026,-0.613656 0.0142,-0.286173 0.0219,-0.572677 0.0261,-0.859163 -0.003,-0.223406 0.008,-0.44608 0.0422,-0.666903 0.0461,-0.244806 0.0841,-0.490972 0.12829,-0.736137 0.0629,-0.345472 0.14777,-0.686295 0.23479,-1.026314 0.0997,-0.43452 0.21401,-0.865367 0.32342,-1.297458 0.12416,-0.523703 0.26399,-1.043424 0.39622,-1.565087 0.1198,-0.484662 0.17751,-0.981533 0.24752,-1.475039 0.0729,-0.602012 0.23512,-1.184648 0.41817,-1.760884 0.18924,-0.54555 0.35783,-1.097608 0.51334,-1.653614 0.10595,-0.414018 0.2408,-0.819465 0.37489,-1.224955 0.10562,-0.300019 0.15852,-0.613405 0.20214,-0.927267 0.0364,-0.307496 0.074,-0.614749 0.11549,-0.921612 0.0415,-0.278808 0.0802,-0.557988 0.11961,-0.837102 0.0463,-0.292272 0.0938,-0.584288 0.16733,-0.87108 0.0389,-0.141626 0.0837,-0.281496 0.12674,-0.421889 0.003,-0.0177 0.0109,-0.03391 0.0191,-0.04911 -0.12412,0.08438 -0.26023,0.153366 -0.37235,0.253133 -0.012,0.01072 0.15004,0.349514 0.16723,0.384188 0.0802,0.15408 0.14901,0.313616 0.21506,0.474165 0.0499,0.13756 0.11622,0.268026 0.17318,0.402601 0.0436,0.128759 0.10266,0.250991 0.15489,0.376184 0.0583,0.12141 0.0968,0.250124 0.13874,0.37764 0.0503,0.148839 0.10667,0.29555 0.16308,0.442158 0.0311,0.08261 0.0628,0.165026 0.0935,0.247799 0.007,0.02048 0.0131,0.04092 0.0256,0.0582 0.20308,0.158581 0.90878,-0.757385 1.0282,-0.896392 0.40618,-0.450988 0.81437,-0.900078 1.21697,-1.354291 0.18002,-0.214424 0.35299,-0.433951 0.54215,-0.640506 0.0916,-0.0973 0.18437,-0.193815 0.2826,-0.284526 0.12446,-0.10284 0.26326,-0.230214 -0.28608,0.258068 0.0904,0.498779 0.20513,0.992743 0.33072,1.483709 0.10109,0.415168 0.2357,0.820354 0.38317,1.220962 0.0297,0.07755 0.0577,0.1558 0.0895,0.232532 0.40821,-0.138478 0.65505,-0.425162 0.95591,-0.718159 0.22506,-0.229626 0.4638,-0.446672 0.68138,-0.683583 0.0711,-0.07766 0.13903,-0.158033 0.21165,-0.234251 0.0251,-0.02543 0.0503,-0.05101 0.078,-0.07375 -0.12227,0.08291 -0.26436,0.142293 -0.3668,0.248727 -8e-4,7.94e-4 -0.002,0.295672 -0.003,0.326996 -0.006,0.318685 -0.0185,0.637172 -0.0316,0.955614 -0.032,0.71274 -0.0578,1.425684 -0.044,2.139135 0.0185,0.574913 0.0897,1.146408 0.17358,1.71495 0.0751,0.410951 0.14944,0.821833 0.21525,1.234472 0.0693,0.495144 0.14257,0.989528 0.2226,1.483055 0.0811,0.453962 0.1784,0.904807 0.26971,1.356776 0.0895,0.403492 0.16819,0.809154 0.2451,1.215207 0.0522,0.297688 0.10357,0.595675 0.14626,0.894903 0.0154,0.145957 0.0285,0.292119 0.042,0.438295 0.016,0.152551 0.04,0.304054 0.0593,0.456192 0.0205,0.174311 0.046,0.347933 0.0639,0.522563 0.0228,0.274627 0.0733,0.545632 0.1308,0.81479 0.0569,0.23999 0.11888,0.4788 0.1796,0.71787 0.0336,0.125029 0.0468,0.253907 0.0662,0.381542 0.0135,0.08479 0.0125,0.170911 0.0376,0.253474 0.006,0.02053 0.0166,0.03879 0.0277,0.05677 0.37157,-0.161197 0.41644,-0.220467 0.54413,-0.490688 0.0853,-0.158848 0.13458,-0.331933 0.18671,-0.503484 0.0477,-0.161406 0.10142,-0.320905 0.15328,-0.481002 0.0403,-0.115895 0.0595,-0.23691 0.0877,-0.355896 0.0228,-0.08967 0.0311,-0.182171 0.0344,-0.274386 0.0164,-0.100656 0.0194,-0.202454 0.0276,-0.303906 0.0146,-0.153069 0.0259,-0.306308 0.0421,-0.459216 0.0133,-0.137157 0.0351,-0.273121 0.0489,-0.41021 0.006,-0.09341 0.007,-0.186499 0.0261,-0.278368 0.007,-0.03078 0.0193,-0.05823 0.0189,-0.08988 0.001,-0.01921 2.6e-4,-0.03833 -0.002,-0.05739 0.007,-0.03902 0.0147,-0.07927 0.0219,-0.118735 0.003,-0.04638 0.0103,-0.09031 0.0239,-0.134691 0.0139,-0.05817 0.0144,-0.118353 0.017,-0.177821 0.001,-0.02747 0.002,-0.0549 8e-4,-0.08235 -0.004,-0.07456 -0.003,-0.149395 -0.005,-0.224063 -0.002,-0.15385 0.0122,-0.307025 0.0135,-0.460875 0.0129,-0.246496 0.0689,-0.488257 0.11558,-0.729951 0.0547,-0.263038 0.088,-0.529582 0.12668,-0.795218 0.0334,-0.242647 0.0881,-0.481116 0.14649,-0.718696 0.0325,-0.140621 0.0581,-0.282421 0.0794,-0.425114 0.0317,-0.188613 0.0629,-0.377314 0.0959,-0.565698 0.0512,-0.267226 0.0588,-0.540101 0.0769,-0.810902 0.0216,-0.304028 0.0359,-0.608275 0.0674,-0.911474 0.0303,-0.282292 0.0772,-0.562367 0.11516,-0.843621 0.0313,-0.276315 0.0698,-0.551694 0.11252,-0.826453 0.0362,-0.283964 0.0718,-0.567978 0.10997,-0.851683 0.0312,-0.23563 0.074,-0.469472 0.10938,-0.704456 0.0273,-0.154318 0.0415,-0.31038 0.057,-0.466175 0.0176,-0.166809 0.0211,-0.334525 0.0357,-0.501575 0.0119,-0.114226 0.0167,-0.229442 0.0432,-0.341509 -0.0228,0.01826 0.0224,-0.0455 0.0125,-0.03704 -0.33541,0.286224 -0.34146,0.139351 -0.22524,0.341175 0.0639,0.111019 0.0768,0.1466 0.13345,0.268637 0.17973,0.405984 0.34649,0.817488 0.5076,1.231164 0.0923,0.233014 0.1827,0.466799 0.27349,0.700424 0.0151,0.03792 0.0284,0.07701 0.0452,0.114033 0.24893,0.101428 0.69982,-0.5763 0.83548,-0.744718 0.23837,-0.27495 0.43405,-0.578342 0.60053,-0.900848 0.10193,-0.199781 0.18841,-0.406844 0.28575,-0.60884 0.0367,-0.07768 0.0702,-0.157705 0.11648,-0.230392 0.0159,-0.02574 0.0275,-0.0537 0.0376,-0.08207 0.0464,-0.128717 0.19938,-0.353914 -0.3215,0.234559 -0.019,0.02143 0.0257,0.05113 0.0386,0.07669 0.11551,0.210696 0.23645,0.418248 0.3481,0.631068 0.1179,0.217969 0.19472,0.453864 0.28964,0.681829 0.059,0.132384 0.1175,0.265012 0.17176,0.399444 0.007,0.01937 0.0162,0.03824 0.0242,0.05733 0.35321,-0.145373 0.63057,-0.358741 0.90695,-0.610926 0.16101,-0.144549 0.31185,-0.299622 0.45183,-0.464539 0.0724,-0.09141 0.15072,-0.177837 0.2265,-0.266383 0.0781,-0.09723 0.17299,-0.17821 0.26913,-0.256815 0.044,-0.03552 0.0884,-0.07052 0.13614,-0.100787 -0.40564,0.263654 -0.39202,0.06442 -0.31542,0.311438 0.0151,0.04867 0.0754,0.267779 0.0844,0.300342 0.16071,0.602842 0.25836,1.219686 0.35922,1.834599 0.11151,0.626817 0.23603,1.251281 0.36384,1.874959 0.11314,0.559769 0.22363,1.119987 0.36231,1.674083 0.14737,0.580548 0.326,1.152424 0.48425,1.72998 0.13478,0.504357 0.25852,1.011497 0.36835,1.521852 0.0904,0.476827 0.22027,0.944647 0.3418,1.414134 0.16693,0.687327 0.38957,1.357927 0.61528,2.027542 0.21353,0.601205 0.40892,1.208111 0.58803,1.820368 0.19285,0.684215 0.34803,1.378548 0.49937,2.072926 0.0994,0.455906 0.17783,0.916556 0.30247,1.366554 0.075,0.254108 0.16336,0.503931 0.24658,0.755391 0.0793,0.240405 0.14284,0.485595 0.21549,0.728003 0.0458,0.08275 0.0304,0.206651 0.0945,0.279488 0.61137,-0.03475 0.20428,-0.276757 0.10152,-0.35836 0,0 -0.0185,0.01074 -0.0185,0.01074 v 0 c 0.0369,0.196821 0.0341,0.502267 0.38616,0.09568 0.0175,-0.101552 -0.0438,-0.204377 -0.0618,-0.301776 -0.0713,-0.243469 -0.13709,-0.488624 -0.21599,-0.7298 -0.0831,-0.25056 -0.16995,-0.499861 -0.24726,-0.752306 -0.13096,-0.445246 -0.21485,-0.902226 -0.31802,-1.354343 -0.15718,-0.694315 -0.30716,-1.391029 -0.50099,-2.076273 -0.18082,-0.611185 -0.39789,-1.209577 -0.6121,-1.809705 -0.22858,-0.667269 -0.44755,-1.337755 -0.61537,-2.023428 -0.12701,-0.466857 -0.25596,-0.933301 -0.34653,-1.409001 -0.11368,-0.509408 -0.24273,-1.015079 -0.37966,-1.518727 -0.158,-0.577202 -0.33611,-1.148762 -0.48433,-1.7287 -0.13887,-0.552646 -0.25001,-1.111332 -0.36831,-1.668642 -0.13299,-0.619536 -0.27745,-1.236816 -0.38589,-1.861352 -0.11364,-0.611116 -0.21714,-1.225315 -0.39038,-1.823299 -0.0341,-0.114999 -0.0542,-0.189577 -0.0932,-0.299181 -0.0769,-0.216265 -0.11089,-0.07916 -0.43169,0.04409 -0.0345,0.03295 -0.0733,0.06115 -0.10905,0.0927 -0.0994,0.08505 -0.19832,0.171389 -0.28465,0.269976 -0.0759,0.08764 -0.15241,0.174866 -0.22453,0.265716 -0.13984,0.162694 -0.29015,0.315613 -0.45028,0.458504 -0.0906,0.08128 -0.12181,0.111614 -0.21682,0.187388 -0.1316,0.104963 -0.61327,0.396711 0.0463,0.06735 -0.008,-0.02003 -0.0154,-0.04034 -0.0249,-0.05978 -0.06,-0.131508 -0.11997,-0.263004 -0.17964,-0.39465 -0.097,-0.228131 -0.18441,-0.460743 -0.3,-0.680468 -0.11503,-0.210635 -0.23756,-0.416799 -0.35903,-0.623766 -0.0911,-0.178292 -0.16163,-0.09564 -0.41576,0.0512 -0.01,0.02532 -0.0212,0.05004 -0.0349,0.07348 -0.0378,0.07514 -0.0712,0.152479 -0.10633,0.228878 -0.0938,0.201544 -0.17921,0.407038 -0.28078,0.60489 -0.17117,0.318958 -0.37052,0.619665 -0.60602,0.895427 -0.11522,0.141097 -0.15053,0.186507 -0.26807,0.322188 -0.12808,0.147847 -0.19317,0.211516 -0.18551,0.208974 0.35311,-0.117145 0.23776,-0.256096 0.32587,-0.139272 -0.0151,-0.03706 -0.0332,-0.0734 -0.0487,-0.110445 -0.0987,-0.229473 -0.19328,-0.460692 -0.28791,-0.691848 -0.16616,-0.412284 -0.33457,-0.823992 -0.51772,-1.229048 -0.0589,-0.114144 -0.3942,-0.883415 -0.60995,-0.211283 -0.0262,0.113424 -0.0272,0.230103 -0.0389,0.345551 -0.0139,0.16814 -0.0188,0.337135 -0.0426,0.504333 -0.0157,0.154863 -0.0283,0.310153 -0.0561,0.463529 -0.0361,0.234341 -0.0749,0.468294 -0.10585,0.703403 -0.0391,0.283932 -0.0739,0.568409 -0.11277,0.852376 -0.041,0.274958 -0.0786,0.55046 -0.11136,0.826527 -0.0391,0.28072 -0.0832,0.560832 -0.11094,0.843028 -0.0303,0.30484 -0.0574,0.609979 -0.0735,0.915951 -0.0189,0.27052 -0.0305,0.542599 -0.083,0.809344 -0.0329,0.189251 -0.0664,0.378399 -0.0989,0.567722 -0.0244,0.140957 -0.0474,0.282154 -0.0791,0.421751 -0.0544,0.238493 -0.10528,0.477837 -0.14111,0.719955 -0.0383,0.265568 -0.0754,0.531307 -0.12949,0.794285 -0.0508,0.247104 -0.1088,0.493529 -0.13298,0.745124 -0.0145,0.157086 -0.0315,0.314376 -0.0312,0.472324 -0.002,0.07621 -7.9e-4,0.152545 -0.004,0.228671 -0.002,0.02699 -0.002,0.05402 -0.003,0.08104 -0.003,0.05705 -0.006,0.114511 -0.0232,0.169449 -0.0118,0.04574 -0.0155,0.09244 -0.0231,0.138938 -0.008,0.04271 -0.0196,0.08499 -0.0225,0.128389 -0.002,0.0185 -0.003,0.03708 -0.005,0.05561 -0.009,0.02809 -0.0157,0.05696 -0.0208,0.08611 -0.0154,0.09351 -0.0156,0.188119 -0.0254,0.282281 -0.0141,0.137139 -0.0363,0.273227 -0.0501,0.410403 -0.0174,0.153885 -0.0287,0.308272 -0.0454,0.462243 -0.009,0.103156 -0.0229,0.205571 -0.0341,0.308417 -0.007,0.09027 -0.0169,0.180382 -0.0399,0.26828 -0.0261,0.118213 -0.0489,0.237066 -0.0883,0.351882 -0.0492,0.159137 -0.0987,0.318196 -0.14583,0.477973 -0.0525,0.170098 -0.1083,0.338897 -0.19044,0.497496 -0.1302,0.26806 -0.19779,0.309684 0.32496,0.01402 -0.005,-0.0078 -0.0127,-0.01439 -0.0149,-0.02339 -0.025,-0.07956 -0.0203,-0.164359 -0.0359,-0.245842 -0.0206,-0.128752 -0.0351,-0.258863 -0.0716,-0.38448 -0.0635,-0.23731 -0.12478,-0.475332 -0.18122,-0.714409 -0.0573,-0.267944 -0.1047,-0.537866 -0.12484,-0.811488 -0.0169,-0.17559 -0.0403,-0.350295 -0.0619,-0.525343 -0.0199,-0.151641 -0.0422,-0.30298 -0.0576,-0.455176 -0.0145,-0.146587 -0.0251,-0.293661 -0.0463,-0.439468 -0.05,-0.297328 -0.10353,-0.594092 -0.1579,-0.890645 -0.0773,-0.40625 -0.15354,-0.812684 -0.24495,-1.216076 -0.093,-0.45049 -0.19388,-0.89948 -0.27357,-1.352584 -0.0829,-0.492178 -0.15278,-0.986176 -0.22894,-1.479405 -0.066,-0.411313 -0.14462,-0.819493 -0.22831,-1.227529 -0.0962,-0.561001 -0.17137,-1.126246 -0.19802,-1.69528 -0.021,-0.708401 -5.3e-4,-1.416979 0.0224,-2.125152 0.0129,-0.383008 0.0336,-0.766834 0.0315,-1.150178 -2.5e-4,-0.04408 0.0403,-0.127614 -0.004,-0.132194 -0.1269,-0.01326 -0.24752,0.06203 -0.37128,0.09304 -0.0187,0.0232 -0.0385,0.04562 -0.0587,0.06756 -0.0703,0.0771 -0.13821,0.156353 -0.20874,0.233252 -0.21541,0.232418 -0.44334,0.453054 -0.66845,0.675952 -0.11351,0.109344 -0.20412,0.198027 -0.31975,0.304088 -0.12264,0.112496 -0.57554,0.427874 0.0825,0.05674 -0.0405,-0.07 -0.069,-0.146466 -0.10149,-0.220311 -0.1596,-0.392917 -0.29548,-0.794954 -0.39958,-1.206349 -0.125,-0.487786 -0.25259,-0.975784 -0.34451,-1.471112 -0.42823,0.03442 -0.27525,-0.05734 -0.38428,0.05745 -0.0899,0.09333 -0.18158,0.18492 -0.26863,0.280932 -0.19022,0.209767 -0.36999,0.427947 -0.55162,0.64512 -0.40158,0.458568 -0.81211,0.908886 -1.22468,1.357553 -0.17225,0.191164 -0.34161,0.386043 -0.52315,0.5686 -0.0335,0.03367 -0.14806,0.113099 -0.10287,0.09851 0.35752,-0.115414 0.23887,-0.267237 0.32977,-0.134072 -0.003,-0.02122 -0.0122,-0.04037 -0.0209,-0.06027 -0.0332,-0.08153 -0.0636,-0.164197 -0.0977,-0.24535 -0.0568,-0.145558 -0.11399,-0.291061 -0.16258,-0.439614 -0.0418,-0.128913 -0.0813,-0.258588 -0.1397,-0.381349 -0.0525,-0.124963 -0.11232,-0.246816 -0.15747,-0.37492 -0.0568,-0.134546 -0.12123,-0.265694 -0.17405,-0.401968 -0.0686,-0.160356 -0.13865,-0.320106 -0.2209,-0.474088 -0.0409,-0.08283 -0.0836,-0.165188 -0.12048,-0.249905 -0.009,-0.02151 -0.0183,-0.04322 -0.0265,-0.06523 -0.007,-0.01855 7.9e-4,-0.06007 -0.0185,-0.05635 -0.13674,0.02625 -0.26335,0.09048 -0.39503,0.135724 -2.2e-4,0.0026 5.3e-4,0.03437 -0.007,0.042 -0.0369,0.139049 -0.0736,0.278117 -0.11259,0.416605 -0.0708,0.289767 -0.12301,0.583269 -0.17238,0.877369 -0.0489,0.279988 -0.0915,0.560964 -0.12907,0.842698 -0.0425,0.309827 -0.0851,0.619625 -0.13144,0.92891 -0.0495,0.31392 -0.1107,0.625769 -0.21683,0.92629 -0.13131,0.40617 -0.26375,0.812078 -0.37132,1.225381 -0.15409,0.554021 -0.32026,1.10441 -0.50627,1.648658 -0.18204,0.579652 -0.34609,1.165249 -0.42086,1.769983 -0.0701,0.492104 -0.12823,0.987343 -0.24855,1.470541 -0.13009,0.523354 -0.27088,1.043977 -0.40125,1.567268 -0.11234,0.433988 -0.22319,0.868314 -0.33437,1.302599 -0.089,0.341585 -0.17428,0.684093 -0.23825,1.031444 -0.0471,0.247396 -0.0939,0.494874 -0.13801,0.742807 -0.031,0.222647 -0.0411,0.446511 -0.0375,0.671285 -0.005,0.286152 -0.0103,0.572338 -0.0278,0.858054 -0.0111,0.205637 -0.0151,0.411766 -0.0342,0.616868 -0.017,0.266115 0.44188,0.0899 0.43876,-0.09976 -0.007,-0.04924 -0.0153,-0.09837 -0.0242,-0.147349 -0.0135,-0.07073 -0.0304,-0.140872 -0.0445,-0.211442 -0.008,-0.01722 -0.0149,-0.03537 -0.0205,-0.05354 -0.0404,-0.11924 -0.0731,-0.240742 -0.10481,-0.362517 -0.0532,-0.204925 -0.0966,-0.411781 -0.13915,-0.619117 -0.0265,-0.113546 -0.0593,-0.225004 -0.0966,-0.335499 -0.0849,-0.262231 -0.16591,-0.525703 -0.2486,-0.78862 -0.11951,-0.408871 -0.22309,-0.822134 -0.31174,-1.238824 -0.052,-0.254233 -0.0982,-0.509561 -0.14106,-0.765498 -0.0458,-0.244192 -0.097,-0.487553 -0.12682,-0.734428 -0.0389,-0.2574 -0.0656,-0.516075 -0.0945,-0.774745 -0.038,-0.301503 -0.082,-0.602689 -0.16924,-0.894685 -0.102242,-0.359664 -0.208948,-0.718328 -0.293941,-1.082601 -0.08848,-0.41638 -0.1534,-0.836949 -0.210767,-1.258676 -0.07542,-0.539165 -0.152296,-1.078222 -0.2038,-1.620351 -0.03549,-0.36971 -0.06666,-0.74091 -0.04183,-1.112533 0.02302,-0.364556 -0.301387,-0.10704 -0.392634,0.03605 -0.236336,0.300606 -0.484968,0.591399 -0.733626,0.88179 -0.27197,0.3083 -0.547714,0.612029 -0.830691,0.910307 -0.08054,0.0849 -0.161242,0.169656 -0.242898,0.253486 -0.05821,0.05976 -0.251354,0.1401 -0.176665,0.177255 0.08984,0.04469 0.18098,-0.08673 0.271471,-0.130093 -0.0092,0.0099 -0.01408,0.02841 -0.02751,0.02969 -0.03758,0.0036 -0.09197,-0.270542 -0.115824,-0.28634 -0.122735,-0.366287 -0.220348,-0.740561 -0.302962,-1.117836 -0.133045,-0.619477 -0.242242,-1.243743 -0.378986,-1.862434 -0.0081,-0.03578 -0.123656,-0.520985 -0.126198,-0.520895 -0.131485,0.0047 -0.249603,0.0833 -0.374404,0.124954 -1.38e-4,0.0024 2.64e-4,0.005 -5.3e-4,0.0075 -0.02,0.05968 -0.04028,0.119303 -0.05767,0.179832 -0.06473,0.23111 -0.123656,0.463777 -0.184507,0.695922 -0.115136,0.427019 -0.218483,0.859944 -0.409139,1.261536 -0.369432,0.744848 -0.86256,1.415437 -1.347163,2.08856 -0.07416,0.102733 -0.148029,0.205674 -0.222475,0.3082 -0.04551,0.06267 -0.207602,0.154721 -0.137379,0.187399 0.09194,0.04279 0.182443,-0.09025 0.278908,-0.121539 0.01323,-0.0043 -0.0061,0.03171 -0.01889,0.0372 -0.0249,0.01072 -0.02011,-0.102589 -0.04785,-0.06571 -0.187986,-0.274624 -0.36255,-0.558313 -0.526568,-0.847879 -0.242195,-0.439248 -0.458245,-0.891354 -0.691502,-1.335259 -0.180766,-0.282514 -0.132522,-0.262276 -0.5597,-0.05786 -0.02638,0.0411 -0.04591,0.08603 -0.06824,0.129387 -0.05452,0.110183 -0.112966,0.218371 -0.165055,0.329761 -0.06083,0.135847 -0.112977,0.275338 -0.171431,0.412215 -0.06426,0.156356 -0.127871,0.313002 -0.179904,0.473977 -0.05672,0.172898 -0.107026,0.347909 -0.142343,0.526582 -0.0264,0.15177 -0.05286,0.303702 -0.07151,0.45665 -0.01206,0.159009 -0.01262,0.318148 -0.01119,0.477567 -2.09e-4,0.157314 -5.29e-4,0.314624 -0.0028,0.471922 -0.0035,0.186293 -0.01114,0.372443 -0.01982,0.558562 -0.01117,0.257323 -0.01379,0.514998 -0.03371,0.771879 -0.01381,0.150201 -0.02872,0.300371 -0.05019,0.449702 -0.01204,0.09708 -0.01807,0.195014 -0.04123,0.290406 -0.01916,0.09631 -0.03621,0.192985 -0.05633,0.289092 -0.01714,0.104802 -0.0274,0.210249 -0.04258,0.315344 -0.02437,0.151855 -0.05076,0.303405 -0.07061,0.455954 -0.02098,0.169624 -0.0368,0.33973 -0.0459,0.51045 -0.01553,0.24906 -0.04138,0.497387 -0.05219,0.746707 -0.0083,0.269224 -0.0118,0.538781 -0.03424,0.807349 -0.02048,0.218792 -0.04741,0.436605 -0.09244,0.651944 -0.06073,0.336233 -0.110123,0.675704 -0.109514,1.018246 -2.51e-4,0.348938 -0.0011,0.697863 -0.0036,1.046793 -0.0016,0.226636 -0.0029,0.453366 -0.01217,0.679847 -0.0053,0.101298 -0.01611,0.2019 -0.02733,0.302683 0.390242,-0.146958 0.472453,-0.01897 0.425776,-0.209942 -0.03237,-0.132656 -0.06555,-0.265141 -0.101966,-0.396753 -0.08379,-0.308266 -0.152889,-0.620257 -0.217185,-0.933119 -0.05789,-0.306845 -0.110075,-0.614704 -0.163534,-0.922343 -0.0064,-0.04842 -0.0076,-0.110699 -0.01992,-0.153519 -0.0057,-0.03132 -0.0079,-0.06312 -0.01762,-0.09392 -0.02765,-0.115224 -0.05053,-0.231357 -0.07367,-0.347546 -0.02154,-0.104138 -0.04802,-0.207402 -0.05628,-0.313884 -0.02895,-0.196363 -0.07251,-0.390294 -0.107201,-0.585679 -0.05579,-0.293817 -0.10953,-0.588025 -0.165431,-0.881824 -0.02286,-0.132419 -0.04519,-0.264769 -0.05403,-0.398994 -0.01879,-0.14128 -0.04644,-0.281184 -0.06347,-0.422717 -0.03378,-0.26012 -0.07075,-0.519803 -0.09708,-0.780849 -0.02838,-0.245811 -0.05731,-0.491683 -0.09721,-0.735944 -0.03192,-0.180475 -0.05931,-0.361976 -0.102346,-0.540237 -0.05608,-0.214744 -0.10885,-0.430511 -0.144915,-0.649687 -0.0551,-0.326461 -0.102222,-0.654291 -0.1635,-0.979688 -0.05307,-0.298469 -0.106627,-0.597379 -0.132892,-0.899674 -0.0067,-0.08558 -7.94e-4,-0.177411 -0.01876,-0.260114 -1.8e-5,-2.9e-5 -0.01892,-0.02553 -0.01884,-0.03314 -0.03414,-0.08234 -0.04769,-0.168074 -0.04768,-0.257315 -0.02305,-0.279284 -0.06321,-0.556454 -0.112988,-0.832218 -0.10265,-0.592058 -0.215643,-1.182304 -0.355129,-1.766951 -0.158303,-0.677376 -0.333047,-1.350883 -0.481097,-2.030667 -0.153075,-0.742749 -0.296225,-1.487707 -0.402601,-2.238801 -0.07323,-0.525347 -0.152492,-1.052568 -0.153088,-1.58425 -7.93e-4,-0.04591 0.04242,-0.126712 -0.0021,-0.137732 -0.351647,-0.08695 -0.298154,0.003 -0.290537,0.138934 0.0036,0.09503 0.009,0.191793 -0.0019,0.286175 -0.0049,0.03137 -0.0042,0.06159 -0.01987,0.09095 -0.102378,0.27604 -0.240263,0.538378 -0.365543,0.804168 -0.326139,0.629198 -0.663398,1.262727 -1.11008,1.815907 0.08279,-0.03617 0.163279,-0.07812 0.248356,-0.108524 0.01177,-0.0042 -0.01191,0.0281 -0.02439,0.0285 -0.01058,2.65e-4 -0.01148,-0.01783 -0.01643,-0.02721 -0.03216,-0.06099 -0.06261,-0.122995 -0.09528,-0.183775 -0.100367,-0.215426 -0.168159,-0.442737 -0.242369,-0.668133 -0.09214,-0.290156 -0.204899,-0.573014 -0.296646,-0.863281 -0.116096,-0.390669 -0.210275,-0.78882 -0.231449,-1.197452 -0.0085,-0.198118 0.09667,-0.772217 -0.340643,-0.32215 -0.0173,0.03823 -0.03202,0.07756 -0.04935,0.115793 -0.02932,0.07043 -0.05718,0.141471 -0.08638,0.211945 -0.03586,0.10508 -0.06443,0.212195 -0.09736,0.31819 -0.08449,0.259417 -0.174238,0.517212 -0.249425,0.779574 -0.09125,0.329794 -0.176768,0.661442 -0.229497,0.999986 -0.0721,0.433261 -0.143695,0.866683 -0.199049,1.302446 -0.06707,0.485341 -0.132514,0.970939 -0.18366,1.458278 -0.0674,0.635987 -0.14315,1.271061 -0.224658,1.905394 -0.09449,0.695576 -0.206655,1.388253 -0.346504,2.076299 -0.125285,0.611553 -0.283405,1.214509 -0.472889,1.809501 -0.210759,0.723506 -0.406207,1.451351 -0.600628,2.179384 -0.187849,0.733301 -0.360844,1.470361 -0.50283,2.214073 -0.110945,0.543986 -0.225732,1.087178 -0.336339,1.631214 -0.0329,0.226846 -0.0575,0.454494 -0.08592,0.681861 -0.02782,0.136795 -0.06912,0.269928 -0.115146,0.401661 -0.08902,0.27192 -0.05493,0.114927 0.304535,-0.01971 -0.04053,-0.0413 -0.07791,-0.08543 -0.114276,-0.130445 -0.09357,-0.114912 -0.185267,-0.231582 -0.272852,-0.351102 -0.176596,-0.258033 -0.0036,-0.267534 -0.46409,-0.07341 0.0061,0.01291 0.01156,0.02611 0.01582,0.03983 0.01987,0.0661 0.03568,0.133282 0.05416,0.199774 0.0069,0.02191 0.0076,0.0044 -7.93e-4,0.03402 -0.03261,0.118126 -0.06455,0.236421 -0.09586,0.354902 -0.0567,0.213937 -0.108252,0.429077 -0.163973,0.643257 -0.02771,0.132358 -0.02484,0.269889 -0.04466,0.403419 -0.04099,0.395626 -0.07572,0.794435 -0.161057,1.183309 0.106772,-0.04698 0.213788,-0.0934 0.320312,-0.140938 0.0058,-0.0026 -0.01283,0.0097 -0.0181,0.0061 -0.01445,-0.0097 -0.02231,-0.02676 -0.03301,-0.0405 -0.07347,-0.09425 -0.141764,-0.192439 -0.216004,-0.286105 -0.278376,-0.366918 -0.556265,-0.734941 -0.849656,-1.089924 -0.318183,-0.316921 -0.516853,0.03507 -0.520853,0.300974 -0.04563,0.296765 -0.111078,0.590352 -0.205383,0.87572 -0.111408,0.3585 -0.22824,0.715606 -0.319281,1.08003 -0.09776,0.38948 -0.1979,0.779793 -0.237868,1.180502 -0.04015,0.431646 -0.06103,0.864581 -0.103698,1.295995 -0.02821,0.305475 -0.05914,0.611476 -0.05651,0.918625 -9.5e-5,0.110644 0.0097,0.225764 -0.02667,0.331706 -0.04505,0.171751 0.401458,0.01513 0.371131,-0.133112 -0.007,-0.04169 -0.01431,-0.08338 -0.02702,-0.123804 -0.03262,-0.09631 -0.07282,-0.19032 -0.08446,-0.29251 -0.01318,-0.06538 -0.02625,-0.132186 -0.05262,-0.193111 -0.0042,-0.02387 -0.0098,-0.04739 -0.0141,-0.07125 -0.03807,-0.204994 -0.07151,-0.410819 -0.104923,-0.616612 -0.04344,-0.304189 -0.08266,-0.60887 -0.124024,-0.913331 -0.03784,-0.29727 -0.07657,-0.594548 -0.13553,-0.888553 -0.05049,-0.273076 -0.101454,-0.546166 -0.163396,-0.816925 -0.03662,-0.183496 -0.07003,-0.367702 -0.115038,-0.549417 -0.03141,-0.150358 -0.05705,-0.301829 -0.08944,-0.45198 -0.01497,-0.07939 -0.02291,-0.164283 -0.03987,-0.240872 -0.01254,-0.02577 -0.02357,-0.05226 -0.03386,-0.07902 -0.05929,-0.15311 -0.110484,-0.309269 -0.164359,-0.464323 -0.09827,-0.300302 -0.184576,-0.604118 -0.269245,-0.90851 -0.07958,-0.284639 -0.172651,-0.565132 -0.246071,-0.851517 -0.07656,-0.305382 -0.143364,-0.612899 -0.211079,-0.92034 -0.06811,-0.341079 -0.130686,-0.683244 -0.203557,-1.023374 -0.0882,-0.420118 -0.185063,-0.838078 -0.283215,-1.255956 -0.0754,-0.373639 -0.143457,-0.748717 -0.220605,-1.122013 -0.05486,-0.296749 -0.08747,-0.59663 -0.120009,-0.896551 -0.03979,-0.421891 -0.07094,-0.844468 -0.07369,-1.268497 -0.0055,-0.222695 -0.0044,-0.445254 -0.0038,-0.667973 -0.323167,0.102558 -0.288552,0.025 -0.362278,0.242393 -0.104992,0.282244 -0.211259,0.56402 -0.321143,0.844405 -0.136795,0.366336 -0.275863,0.733015 -0.366776,1.114142 -0.07754,0.307736 -0.166928,0.366511 0.28044,0.183816 -0.01461,-0.03206 -0.02718,-0.06555 -0.0392,-0.09881 -0.05269,-0.142036 -0.105926,-0.284509 -0.138554,-0.432797 -0.04053,-0.186756 -0.06497,-0.376433 -0.106429,-0.563052 -0.07374,-0.29604 -0.150257,-0.591481 -0.206642,-0.891511 -0.110334,-0.577876 -0.185965,-1.160965 -0.282104,-1.74122 -0.06832,-0.3229 -0.08696,-0.683197 -0.510096,-0.30512 -0.168214,0.143486 -0.333907,0.289935 -0.501367,0.434297 -0.0974,0.0827 -0.194598,0.165979 -0.294732,0.245393 -0.140901,0.111747 -0.106566,0.0631 0.162369,-0.0731 0.0073,-0.0037 -0.01122,0.01199 -0.01685,0.01799 -0.08551,-0.01371 -0.123542,-0.208251 -0.192077,-0.249285 -0.16751,-0.246507 -0.321362,-0.501788 -0.432456,-0.779524 -0.177355,-0.420452 -0.34091,-0.846434 -0.493141,-1.276643 -0.208002,-0.555586 -0.430363,-1.105599 -0.671377,-1.647759 -0.243557,-0.55345 -0.478751,-1.110433 -0.718722,-1.665375 -0.02598,-0.05127 -0.02228,-0.139504 -0.07793,-0.153794 -0.328867,-0.08442 -0.319458,0.01127 -0.331227,0.180189 -0.01699,0.333092 -0.02711,0.666445 -0.02784,1.000003 -0.0043,0.810982 0.0021,1.623301 -0.06823,2.432063 -0.09161,0.926444 -0.241158,1.843344 -0.429827,2.755024 -0.01749,0.08869 -0.03401,0.177583 -0.05248,0.266076 -0.01257,0.06022 -0.09619,0.153554 -0.04066,0.180036 0.471027,0.224634 0.281458,-0.03796 0.242773,-0.111064 -0.08785,-0.163042 -0.157207,-0.335646 -0.212156,-0.512414 -0.150717,-0.478197 -0.285414,-0.961014 -0.416724,-1.44486 -0.13403,-0.452612 -0.275262,-0.903187 -0.44427,-1.344192 -0.08358,-0.240451 -0.233465,-0.122269 -0.36726,0.01415 -0.09453,0.107405 -0.184555,0.218784 -0.270385,0.333256 -0.147238,0.203068 -0.28357,0.41229 -0.356608,0.654989 -0.08699,0.25917 -0.158904,0.523034 -0.21734,0.790144 -0.07167,0.38684 -0.114318,0.776986 -0.151273,1.168572 -0.07932,0.699098 -0.147944,1.399477 -0.240903,2.096963 -0.09359,0.661784 -0.20216,1.32115 -0.32245,1.978626 -0.125508,0.735317 -0.2096,1.47488 -0.257866,2.219462 -0.08406,0.805027 -0.194894,1.606953 -0.367657,2.398329 -0.0826,0.415383 -0.161205,0.831713 -0.20647,1.253141 -0.02679,0.229431 -0.04846,0.45965 -0.08136,0.688247 -0.02196,0.139415 -0.05103,0.277524 -0.07065,0.41724 -0.0071,0.07532 -0.01453,0.150744 -0.01852,0.226216 1.16e-4,0.0043 0.0019,0.0087 2.65e-4,0.01312 0.0045,0.01937 0.0085,0.03906 0.01865,0.05651 0.0021,0.0067 0.0049,0.01318 0.006,0.02008 0.01553,0.09918 0.02854,0.19875 0.04181,0.298252 0.01841,0.163772 0.02585,0.328985 0.01228,0.493517 -0.01762,0.204165 -0.04131,0.407823 -0.05235,0.612521 -0.01632,0.187198 -0.04194,0.37325 -0.07882,0.557596 -0.02103,0.105981 -0.04416,0.211071 -0.07109,0.31574 -0.0084,0.03281 -0.05992,0.0944 -0.02625,0.09818 0.08361,0.0094 0.267261,-0.159059 0.243303,-0.06711 -0.05423,-0.03431 -0.101137,-0.07885 -0.14763,-0.122963 -0.11203,-0.104994 -0.21582,-0.216143 -0.302755,-0.343474 -0.06067,-0.08058 -0.212518,-0.316838 -0.21863,-0.316246 -0.107625,0.01045 -0.206743,0.06346 -0.310116,0.0952 -5.29e-4,0.0019 -7.93e-4,0.0038 -0.0013,0.0058 -0.01759,0.07718 -0.02792,0.155612 -0.03295,0.234672 -0.02665,0.397558 -0.0021,0.795139 0.0068,1.192982 0.0073,0.282388 0.0155,0.564738 0.0158,0.847246 5.6e-5,0.05165 -0.05139,0.14177 -0.0013,0.154943 0.373058,0.09841 0.330372,0.0072 0.290349,-0.09532 -0.0186,-0.126281 -0.05333,-0.250116 -0.07115,-0.376674 -0.0254,-0.137031 -0.05906,-0.271952 -0.09264,-0.40717 -0.03863,-0.151392 -0.07018,-0.304922 -0.121435,-0.45275 -0.07509,-0.210989 -0.15257,-0.421225 -0.211077,-0.637701 -0.08769,-0.317051 -0.167854,-0.636199 -0.260456,-0.951836 -0.118652,-0.380569 -0.233283,-0.762424 -0.32549,-1.150448 -0.06886,-0.273378 -0.132136,-0.54741 -0.183933,-0.824587 -0.0083,-0.04427 0.01998,-0.122254 -0.02376,-0.132985 -0.09815,-0.02408 -0.198906,0.03596 -0.29836,0.05394 -0.0098,0.08247 -0.01572,0.165481 -0.024,0.248179 -0.03964,0.36652 -0.07102,0.734013 -0.12034,1.099426 -0.04701,0.338627 -0.10019,0.676979 -0.175236,1.010655 0.556702,-0.232478 0.230994,-0.141922 0.292952,-0.107323 -0.0071,-0.02877 -0.01794,-0.05661 -0.02696,-0.08492 -0.03989,-0.122989 -0.07133,-0.24834 -0.09972,-0.374454 -0.05123,-0.211497 -0.105109,-0.422402 -0.147495,-0.635947 -0.04705,-0.234447 -0.09612,-0.46849 -0.143708,-0.702818 -0.05124,-0.228066 -0.120558,-0.451599 -0.170357,-0.680077 -0.05798,-0.239403 -0.107638,-0.480616 -0.166058,-0.719892 -0.03773,-0.139506 -0.08392,-0.277037 -0.109011,-0.419624 -0.02177,-0.129413 -0.03531,-0.259971 -0.05878,-0.38912 -0.01749,-0.09945 -0.03044,-0.199461 -0.04511,-0.299309 -0.0098,-0.0459 -0.01429,-0.09294 -0.02843,-0.137973 -0.02286,-0.08978 -0.05323,-0.177294 -0.07368,-0.267684 -0.01905,-0.102455 -0.03741,-0.205089 -0.06774,-0.305025 -0.04065,-0.1631 -0.07176,-0.328393 -0.105635,-0.492998 -0.02524,-0.132945 -0.04315,-0.267023 -0.07069,-0.39951 -0.02566,-0.124344 -0.03744,-0.250076 -0.04823,-0.37646 -0.0078,-0.08222 -0.01037,-0.165163 -0.02993,-0.245816 -0.02574,-0.115533 -0.05973,-0.229275 -0.07589,-0.346904 -0.04803,-0.257474 -0.118266,-0.510331 -0.161311,-0.768847 -0.04331,-0.256379 -0.08992,-0.512133 -0.148582,-0.765535 -0.04323,-0.21173 -0.08215,-0.424325 -0.119372,-0.637185 -0.02455,-0.138695 -0.04414,-0.27836 -0.07335,-0.416121 -0.0476,-0.17808 -0.100401,-0.354748 -0.127817,-0.537615 -0.06326,-0.308147 -0.142539,-0.612513 -0.201809,-0.92148 -0.0976,-0.488283 -0.188044,-0.97812 -0.297344,-1.463982 -0.0479,-0.19604 -0.09474,-0.392941 -0.163846,-0.582956 -0.01487,-0.0409 -0.0072,-0.112753 -0.04996,-0.120621 -0.100457,-0.01847 -0.200832,0.03737 -0.30125,0.05605 -0.0028,0.0019 -0.0056,0.0036 -0.0084,0.0055 -0.06335,0.04335 -0.123592,0.09127 -0.181801,0.141248 -0.08707,0.08092 -0.352073,0.296267 0.05196,0.07252 -0.01162,-0.02577 -0.02193,-0.05226 -0.02649,-0.08048 -0.02706,-0.13543 -0.01889,-0.277228 -0.02891,-0.414298 -0.0026,-0.244986 -0.0024,-0.491003 -0.02754,-0.73487 -0.609928,0.16469 -0.164349,0.06809 -0.02455,-0.0093 -0.02561,-0.08917 -0.04523,-0.179914 -0.06573,-0.27037 -0.06306,-0.31324 -0.107571,-0.629444 -0.151519,-0.945864 -0.032,-0.214752 -0.07877,-0.430112 -0.07937,-0.647758 0.0073,-0.120725 0.01675,-0.24279 0.06338,-0.355902 -0.254653,0.09339 -0.211436,0.0093 -0.240173,0.158255 -0.04178,0.183938 -0.103912,0.361942 -0.173116,0.537274 -0.167426,0.432734 -0.360299,0.85495 -0.573943,1.266915 -0.07926,0.143515 -0.120845,0.231645 -0.214886,0.359579 -0.02529,0.0344 -0.125701,0.09505 -0.08308,0.09746 0.182094,0.01029 0.250663,-0.106997 0.138424,-0.0805 -0.08089,-0.06014 -0.142999,-0.143025 -0.214603,-0.21319 -0.04997,-0.05219 -0.09933,-0.104947 -0.153821,-0.152535 -0.0076,-0.0048 -0.01267,-0.0087 -0.02305,-0.01651 -0.04935,-0.04558 -0.07429,-0.107 -0.09268,-0.170545 -0.08392,-0.266206 -0.168111,-0.532792 -0.26993,-0.792777 -0.05518,-0.149674 -0.115883,-0.300074 -0.15348,-0.455533 -0.0085,-0.035 0.0154,-0.09589 -0.01908,-0.106317 -0.07943,-0.02402 -0.165079,0.01709 -0.247619,0.02564 -0.0011,0.0013 -0.0021,0.0024 -0.0032,0.0036 -0.02572,0.04157 -0.04546,0.08665 -0.06904,0.129418 -0.08394,0.165386 -0.154318,0.336635 -0.225809,0.507685 -0.0939,0.214733 -0.19436,0.426453 -0.287051,0.641707 -0.116084,0.294132 -0.219747,0.593953 -0.290232,0.90261 -0.07722,0.34275 -0.139348,0.689065 -0.232479,1.028118 -0.128471,0.460439 -0.256379,0.921245 -0.403127,1.376278 -0.16388,0.50872 -0.322707,1.019204 -0.465632,1.534258 -0.112046,0.412747 -0.227061,0.824635 -0.358275,1.231813 -0.140238,0.455766 -0.270592,0.914812 -0.370391,1.381368 -0.08717,0.413004 -0.163205,0.828027 -0.239014,1.243229 -0.05957,0.309534 -0.10437,0.620586 -0.132701,0.934686 -0.03577,0.346289 -0.07156,0.692528 -0.112303,1.038299 -0.05447,0.495525 -0.116215,0.989992 -0.18896,1.483212 -0.05309,0.430977 -0.09694,0.86296 -0.124576,1.2964 -0.02514,0.343863 -0.05527,0.687414 -0.07013,1.031949 -0.01143,0.22738 -0.0279,0.45453 -0.05526,0.680612 -0.01135,0.07697 -0.02305,0.153937 -0.04036,0.229856 -0.0044,0.01931 -0.0346,0.05911 -0.01487,0.05752 0.08058,-0.0065 0.153759,-0.04998 0.230639,-0.07498 -5.29e-4,-1.67e-4 -0.0011,-2.65e-4 -0.0016,-5.3e-4 -0.01016,-0.01273 -0.01929,-0.02868 -0.02064,-0.04859 -0.02535,-0.09919 -0.05005,-0.19856 -0.07662,-0.297437 -0.02117,-0.09827 -0.02943,-0.198342 -0.04914,-0.296902 -0.02479,-0.125987 -0.05058,-0.251413 -0.05228,-0.380497 -0.0092,-0.09832 -0.01892,-0.196348 -0.01458,-0.295299 2e-6,-0.0729 7.94e-4,-0.145852 -0.0037,-0.218631 -1.69e-4,-0.04363 -0.0021,-0.08718 -0.0021,-0.130804 -9e-5,-0.0159 0.0031,-0.03379 -0.0064,-0.04695 -0.01315,-0.02088 -0.02484,-0.0426 -0.03356,-0.06583 -0.02511,-0.06782 -0.04674,-0.137205 -0.06645,-0.20673 -0.01368,-0.07477 -0.01535,-0.151209 -0.03315,-0.225361 -0.0034,-0.02886 -0.0044,-0.05746 -0.01931,-0.08328 -0.0083,-0.02167 -0.02013,-0.04195 -0.02159,-0.06542 -0.0049,-0.0533 -0.01011,-0.106571 -0.01693,-0.159665 -0.0045,-0.02527 -0.01032,-0.05138 -0.01976,-0.07466 1.35e-4,-0.0041 5.3e-4,-0.0085 5.3e-4,-0.01278 -5.3e-4,-0.02469 -7.94e-4,-0.04937 1.8e-4,-0.07404 2.64e-4,-0.02687 0.0011,-0.05385 -0.0011,-0.08066 -0.01667,-0.06225 -0.03623,-0.123748 -0.05537,-0.185285 -0.08031,-0.242909 -0.157279,-0.486937 -0.242652,-0.728165 -0.0998,-0.297331 -0.198642,-0.595419 -0.319554,-0.885021 -0.08452,-0.192553 -0.16737,-0.385749 -0.245054,-0.581189 -0.07562,-0.19903 -0.138906,-0.403471 -0.235524,-0.59382 -0.12944,-0.247775 -0.266102,-0.491781 -0.391102,-0.741916 -0.182102,-0.350943 -0.378444,-0.694814 -0.583491,-1.032801 -0.251783,-0.405664 -0.507664,-0.808871 -0.750051,-1.220271 0,0 -0.141042,0.08207 -0.141042,0.08207 z" />
    <text
       xml:space="preserve"
       style="font-style:normal;font-weight:normal;font-size:4.58611px;line-height:1.25;font-family:sans-serif;fill:#000000;fill-opacity:1;stroke:none;stroke-width:0.264583"
       x="71.511383"
       y="62.732052"
       id="text6319"><tspan
         sodipodi:role="line"
         id="tspan6317"
         x="71.511383"
         y="62.732052"
         style="font-size:4.58611px;stroke-width:0.264583">residue number</tspan></text>
  </g>
</svg>
