<?xml version="1.0" encoding="UTF-8" standalone="no"?>
<svg
   xmlns:dc="http://purl.org/dc/elements/1.1/"
   xmlns:cc="http://creativecommons.org/ns#"
   xmlns:rdf="http://www.w3.org/1999/02/22-rdf-syntax-ns#"
   xmlns:svg="http://www.w3.org/2000/svg"
   xmlns="http://www.w3.org/2000/svg"
   xmlns:sodipodi="http://sodipodi.sourceforge.net/DTD/sodipodi-0.dtd"
   xmlns:inkscape="http://www.inkscape.org/namespaces/inkscape"
   width="120.92596mm"
   height="74.015724mm"
   viewBox="0 0 120.92596 74.015724"
   version="1.1"
   id="svg462"
   inkscape:version="1.0.1 (3bc2e813f5, 2020-09-07)"
   sodipodi:docname="simu-lipid-protein-binding.svg">
  <defs
     id="defs456" />
  <sodipodi:namedview
     id="base"
     pagecolor="#ffffff"
     bordercolor="#666666"
     borderopacity="1.0"
     inkscape:pageopacity="0.0"
     inkscape:pageshadow="2"
     inkscape:zoom="0.98994949"
     inkscape:cx="-21.33248"
     inkscape:cy="165.25017"
     inkscape:document-units="mm"
     inkscape:current-layer="layer1"
     inkscape:document-rotation="0"
     showgrid="false"
     inkscape:window-width="1920"
     inkscape:window-height="1015"
     inkscape:window-x="0"
     inkscape:window-y="0"
     inkscape:window-maximized="1" />
  <metadata
     id="metadata459">
    <rdf:RDF>
      <cc:Work
         rdf:about="">
        <dc:format>image/svg+xml</dc:format>
        <dc:type
           rdf:resource="http://purl.org/dc/dcmitype/StillImage" />
        <dc:title></dc:title>
      </cc:Work>
    </rdf:RDF>
  </metadata>
  <g
     inkscape:label="Layer 1"
     inkscape:groupmode="layer"
     id="layer1"
     transform="translate(-18.593118,-31.146308)">
    <path
       style="fill:none;stroke:#000000;stroke-width:0.264583px;stroke-linecap:butt;stroke-linejoin:miter;stroke-opacity:1"
       d="M 35.033759,34.626126 V 91.803404 H 138.02985"
       id="path464" />
    <path
       style="fill:#000000;stroke-width:0.264583"
       id="path466"
       d="m 34.870167,34.370594 c -0.562999,0.416714 -1.107556,0.856319 -1.629785,1.322949 -0.237853,0.226417 -0.470305,0.461205 -0.67363,0.71964 -0.04898,0.05356 -0.110225,0.138734 -0.115392,0.188619 0.731411,-0.152784 1.186481,-0.60283 1.699395,-1.062829 0.340786,-0.298466 0.669017,-0.61074 0.988787,-0.931518 0.198131,-0.214993 0.388374,-0.438045 0.601774,-0.638268 0.121393,-0.116411 0.254616,-0.218318 0.397285,-0.306978 -1.0311,0.468136 -1.258255,0.448324 -0.770729,1.143453 0.243372,0.320879 0.498121,0.632981 0.752034,0.945536 0.101316,0.121939 0.196088,0.249822 0.299775,0.369514 0.02244,0.06396 0.08949,0.04126 0.145111,0.03068 0.277807,-0.12601 0.143621,-0.05029 0.401389,-0.229229 0,0 0.07462,-0.02935 0.07462,-0.02935 v 0 c 0.278141,-0.193011 0.159277,-0.09357 0.364604,-0.288483 0.01749,-0.06068 0.03234,-0.04995 -0.0058,-0.07408 -0.102196,-0.120788 -0.211376,-0.236482 -0.311722,-0.359185 -0.254656,-0.307724 -0.514352,-0.612045 -0.746863,-0.937178 -0.450524,-0.676839 0.171633,-0.649518 -1.198488,-0.169887 -0.0461,0.10504 -0.162656,0.164357 -0.235506,0.24932 -0.205647,0.206695 -0.394017,0.429498 -0.597776,0.638021 -0.321939,0.320625 -0.653833,0.630643 -0.996788,0.928778 -0.367168,0.319368 -1.428237,1.075523 0.117461,0.284623 0.06014,-0.04961 0.09497,-0.118772 0.142095,-0.181441 0.196114,-0.244144 0.410371,-0.473607 0.640339,-0.686239 0.52146,-0.470114 1.069126,-0.909823 1.642407,-1.315508 0,0 -0.9846,0.389032 -0.9846,0.389032 z" />
    <path
       style="fill:#000000;stroke-width:0.264583"
       id="path468"
       d="m 34.980305,42.293074 c 0.593403,-0.05056 1.187739,-0.01865 1.782189,-0.02823 0.08116,-0.0079 0.229232,-0.0057 0.257714,0.02397 0.620737,-0.654439 1.051971,-0.564645 0.537621,-0.663109 -0.196872,-0.03769 -0.390189,-0.09214 -0.583137,-0.145685 -0.245798,-0.06876 -0.494202,-0.128638 -0.742537,-0.187325 -0.195268,-0.01532 -0.375827,0.188074 -0.531805,0.295703 0,0 -0.06524,0.04662 -0.06524,0.04662 v 0 c -0.05756,0.04159 -0.556768,0.33025 -0.354904,0.32368 0.268962,0.03492 0.535892,0.08225 0.801492,0.137705 0.967136,0.210683 0.653822,0.30493 1.789057,-0.429693 -0.104421,0.05669 -0.241636,0.02402 -0.35365,0.04568 -0.632712,0.03521 -1.262537,0.110096 -1.89687,0.111752 0,0 -0.639932,0.468947 -0.639932,0.468947 z" />
    <path
       style="fill:#000000;stroke-width:0.264583"
       id="path470"
       d="m 30.128091,41.150838 c 0.08451,0.646811 0.05492,1.422255 0.473797,1.970136 0.06853,0.08964 0.163687,0.155355 0.245528,0.233031 0.91866,0.452758 1.379945,-0.01545 2.183371,-0.528478 0.270838,-0.401548 0.305019,-0.888656 0.339267,-1.357472 0.02816,-0.387699 -0.201692,-0.551095 -0.521105,-0.696367 -0.357783,-0.211484 -0.714952,-0.284813 -1.12345,-0.222777 -0.583374,0.23572 -0.818412,0.309518 -1.464122,0.838663 -0.05498,0.04505 0.01363,0.14151 0.01897,0.212389 0.0098,0.129964 0.01751,0.26007 0.02627,0.390105 0,0 0.07215,-0.03498 0.07215,-0.03498 v 0 c 0.06715,-0.161203 0.09302,-0.346728 0.201462,-0.483605 0.05874,-0.07414 1.26956,-0.950024 -0.03649,-0.112797 -0.08449,0.05416 0.182959,-0.08252 0.274441,-0.123773 0.412499,-0.09763 0.750996,-0.03862 1.137113,0.130702 0.263361,0.113816 0.537337,0.209643 0.562925,0.536996 0.04091,0.441849 -0.01193,0.898808 -0.300122,1.254156 0.196281,-0.09867 0.391139,-0.200231 0.588841,-0.296021 0.0646,-0.0313 -0.122171,0.07732 -0.189399,0.102484 -0.340765,0.127553 -0.717921,0.09401 -1.040337,-0.0608 -0.07739,-0.06827 -0.171918,-0.121039 -0.232164,-0.204829 -0.401309,-0.55816 -0.22852,-1.407224 -0.250214,-2.039327 0,0 -0.96671,0.492564 -0.96671,0.492564 z" />
    <path
       style="fill:#000000;stroke-width:0.264583"
       id="path478"
       d="m 134.05388,90.499397 c 0.79657,0.145865 1.5709,0.394126 2.33718,0.652341 0.46777,0.149228 0.91374,0.350912 1.34339,0.586806 0.20171,0.08283 0.33585,0.234913 0.48242,0.384215 0.40547,0.214693 0.80632,-0.528463 1.14844,-0.777968 -0.90245,0.271553 -1.7866,0.601877 -2.66655,0.938284 -0.84986,0.328068 -1.67711,0.709837 -2.49167,1.116687 -0.48203,0.199197 -0.84405,0.472491 -1.20732,0.842735 0,0 0.0643,-0.04785 0.0643,-0.04785 v 0 c -0.18893,0.126005 -0.38096,0.247481 -0.56678,0.378015 -0.20301,0.142603 0.42765,-0.166954 0.55914,-0.251759 0.82378,-0.420504 1.65852,-0.8208 2.52035,-1.158287 0.85052,-0.325964 1.70659,-0.64289 2.5829,-0.893289 0.38829,-0.25124 1.70034,-0.506876 1.27589,-0.92361 -0.21148,-0.102994 -0.44262,-0.165777 -0.63953,-0.300588 -0.44176,-0.23704 -0.89626,-0.447193 -1.37763,-0.592241 -0.77813,-0.236765 -1.55931,-0.464489 -2.3468,-0.668213 0,0 -1.01777,0.714719 -1.01777,0.714719 z" />
    <text
       xml:space="preserve"
       style="font-style:normal;font-weight:normal;font-size:6.35px;line-height:1.25;font-family:sans-serif;fill:#000000;fill-opacity:1;stroke:none;stroke-width:0.264583"
       x="55.425869"
       y="103.77773"
       id="text482"><tspan
         sodipodi:role="line"
         id="tspan480"
         x="55.425869"
         y="103.77773"
         style="font-size:6.35px;stroke-width:0.264583">P-L separation (nm)</tspan></text>
    <text
       xml:space="preserve"
       style="font-style:normal;font-weight:normal;font-size:6.35px;line-height:1.25;font-family:sans-serif;fill:#000000;fill-opacity:1;stroke:none;stroke-width:0.264583"
       x="-91.104424"
       y="23.241318"
       id="text504"
       transform="rotate(-90)"><tspan
         sodipodi:role="line"
         id="tspan502"
         x="-91.104424"
         y="23.241318"
         style="font-size:6.35px;stroke-width:0.264583">free energy (kJ/mol)</tspan></text>
    <path
       style="fill:#000000;stroke-width:0.264583"
       id="path517"
       d="m 43.480294,34.153094 c 0.59296,0.793027 1.082892,1.656984 1.594971,2.502992 0.295744,0.508125 0.597236,1.01487 0.851416,1.545495 0.09112,0.191839 0.179409,0.385395 0.252921,0.584769 0.0173,0.05333 0.0024,0.03815 0.03883,0.05494 0.04143,0.07329 0.07014,0.152704 0.101444,0.230605 0.02844,0.0804 0.07085,0.154554 0.102201,0.233704 0.03977,0.147162 0.115274,0.279331 0.182793,0.414772 0.07172,0.1442 0.129267,0.294616 0.199564,0.439467 0.06813,0.170326 0.12182,0.345972 0.177017,0.520777 0.131599,0.516615 0.25033,1.035539 0.399389,1.547725 0.210462,0.818486 0.560919,1.570173 0.99288,2.292149 0.537483,0.839229 1.126154,1.643724 1.742409,2.426335 0.242107,0.340921 0.541083,0.509199 0.946618,0.562758 0.51149,0.049 0.998831,-0.01746 1.481508,-0.185123 1.162674,-0.50414 2.183738,-1.242023 3.14452,-2.051508 0.488291,-0.411327 0.895516,-0.906087 1.30629,-1.391957 0.170616,-0.196736 0.317227,-0.411779 0.471196,-0.621168 0.11888,-0.140329 0.251696,-0.268152 0.394195,-0.38423 0.09868,-0.07306 0.198837,-0.144725 0.304768,-0.207018 -0.01947,0.009 0.03537,-0.01863 0.02679,-0.01349 -1.789351,1.070576 -1.314945,0.721839 -0.796322,0.542819 0.357042,-0.13317 0.71201,-0.27146 1.070927,-0.399798 0.586457,-0.206463 1.180534,-0.389726 1.78276,-0.544047 0.695857,-0.168251 1.411621,-0.216035 2.12339,-0.265573 0.867651,-0.055 1.737162,-0.07521 2.60635,-0.06225 0.849288,0.0217 1.695823,0.103666 2.537822,0.21341 0.806482,0.114583 1.611506,0.239168 2.420826,0.332317 1.097704,0.138626 2.19777,0.0071 3.288001,-0.127818 1.424811,-0.168783 2.834003,-0.43416 4.242052,-0.70472 1.522005,-0.275833 3.042837,-0.558178 4.565821,-0.828567 0.896425,-0.161012 1.800987,-0.272073 2.709707,-0.330869 0.485658,-0.03749 0.971722,0.0024 1.455047,0.0495 0.894365,0.0864 1.77174,0.279136 2.647209,0.473991 1.180505,0.295135 2.395797,0.359669 3.606927,0.381341 1.532765,0.0093 3.06529,-0.0254 4.598024,-0.02204 1.356908,-0.01371 2.699848,0.15724 4.024965,0.434922 1.30438,0.342398 2.62217,0.605759 3.95787,0.787927 1.23739,0.159231 2.48099,0.267427 3.72679,0.33129 0.89824,0.04883 1.79805,0.05143 2.69734,0.05261 0.99043,0.0029 1.9776,-0.04962 2.95953,-0.177797 0.79922,-0.108839 1.58908,-0.275119 2.38988,-0.372377 0.69537,-0.07617 1.39445,-0.106683 2.09314,-0.132943 0.62996,-0.01841 1.26026,-0.03325 1.8905,-0.02445 0.40721,0.0173 0.8141,0.03838 1.2216,0.04815 0.43086,0.0093 0.86186,0.0105 1.2928,0.01151 0.54708,-0.0047 1.09214,-0.05808 1.63832,-0.08645 0.53382,-0.0268 1.0679,-0.04518 1.60143,-0.07748 0.45456,-0.0411 0.90866,-0.0848 1.364,-0.116649 0.35647,-0.02262 0.71151,-0.06168 1.06783,-0.08604 0.33875,-0.02048 0.67819,-0.02545 1.01748,-0.02548 0.23279,0.0011 0.46561,-2.64e-4 0.69838,0.0024 0.20231,0.0024 0.40462,-5.3e-4 0.60692,-0.0021 0.27226,5.29e-4 0.54449,0.0011 0.81675,-1.61e-4 0.31426,0.0019 0.62837,5.29e-4 0.9425,-0.0091 0.24614,-0.0069 0.49227,-0.0149 0.73851,-0.01651 0.0782,-0.0019 0.1564,0.0028 0.23459,0.003 0.25989,0.02424 0.38876,-0.264673 0.63708,-0.316383 0,0 0.0731,-0.03295 0.0731,-0.03295 v 0 c 0.0993,-0.08399 0.76723,-0.510548 0.43177,-0.480414 -0.0842,2.38e-4 -0.16829,0.0066 -0.2525,0.0074 -0.25021,0.0063 -0.50041,0.01323 -0.75052,0.02299 -0.31142,0.0088 -0.62276,0.01 -0.93432,0.0082 -0.27207,-0.0013 -0.54412,-7.94e-4 -0.81619,-2.14e-4 -0.19999,-0.0016 -0.39997,-0.0046 -0.59997,-0.0028 -0.23569,0.0021 -0.47142,-1.75e-4 -0.70712,0.0028 -0.34157,0.004 -0.68331,0.0047 -1.02457,0.02101 -0.35786,0.02029 -0.71387,0.05938 -1.07123,0.0861 -0.45497,0.03809 -0.91024,0.0713 -1.36442,0.118761 -0.53864,0.03874 -1.07772,0.06651 -1.61715,0.092 -0.53983,0.02461 -1.07875,0.06751 -1.61897,0.08078 -0.43085,-1.61e-4 -0.86172,-6.3e-5 -1.29252,-0.0079 -0.40967,-0.0098 -0.81879,-0.03047 -1.22826,-0.04596 -0.63757,-0.0019 -1.27524,0.01302 -1.91245,0.033 -0.69781,0.02421 -1.39625,0.04628 -2.09118,0.118333 -0.80789,0.08808 -1.59966,0.275222 -2.40519,0.381894 -0.96088,0.117848 -1.92757,0.168674 -2.89594,0.152789 -0.90188,-0.003 -1.80393,-0.0058 -2.70533,-0.0389 -1.25197,-0.0573 -2.50359,-0.143428 -3.74728,-0.301738 -1.32795,-0.186159 -2.6412,-0.439561 -3.93615,-0.79165 -1.33676,-0.279945 -2.692003,-0.457491 -4.06093,-0.443521 -1.531186,-0.0021 -3.06215,0.03297 -4.593336,0.02186 -1.191536,-0.02906 -2.38488,-0.09926 -3.546002,-0.391017 -0.872728,-0.194482 -1.746202,-0.395782 -2.635374,-0.500483 -0.482648,-0.06393 -0.970455,-0.122656 -1.457883,-0.08116 -0.932445,0.08011 -1.862267,0.196919 -2.782708,0.36752 -1.52319,0.273693 -3.044142,0.559892 -4.568306,0.828259 -1.403445,0.268663 -2.807928,0.533329 -4.227362,0.705128 -1.070769,0.13185 -2.149454,0.257395 -3.227541,0.124349 -0.811429,-0.08688 -1.617834,-0.210444 -2.425679,-0.325104 -0.846068,-0.114792 -1.696772,-0.201398 -2.550832,-0.223856 -0.869357,-0.02006 -1.738704,0.0013 -2.60704,0.04793 -0.714713,0.04365 -1.434062,0.08075 -2.134351,0.241509 -0.605991,0.149389 -1.20301,0.333471 -1.793362,0.53589 -0.350446,0.120092 -0.700616,0.241456 -1.043926,0.380886 -0.576996,0.190127 -1.116463,0.445029 -1.604968,0.842807 -0.09653,0.06936 -0.192802,0.139321 -0.282689,0.217273 -0.144701,0.131323 -0.286009,0.267673 -0.409207,0.419732 -0.162478,0.204142 -0.31028,0.419566 -0.480706,0.617509 -0.419147,0.484216 -0.830246,0.980008 -1.335323,1.379442 -0.315092,0.259082 -0.631944,0.51512 -0.964718,0.75152 -0.389205,0.276487 -1.026091,0.65946 0.494011,-0.23463 0.09997,-0.0588 -0.206126,0.106397 -0.309189,0.159594 -0.458875,0.182409 -0.920406,0.260035 -1.415844,0.217892 -0.381667,-0.02814 -0.667813,-0.140917 -0.913193,-0.45461 -0.671333,-0.73049 -1.249667,-1.540031 -1.78343,-2.375238 -0.423777,-0.713301 -0.780954,-1.44562 -0.991123,-2.253189 -0.144309,-0.51544 -0.25631,-1.03785 -0.387641,-1.556372 -0.05279,-0.183711 -0.103786,-0.368726 -0.179899,-0.544512 -0.07179,-0.144439 -0.131341,-0.294392 -0.203258,-0.438775 -0.06703,-0.132471 -0.130479,-0.265517 -0.171005,-0.408924 -0.03262,-0.07886 -0.06794,-0.15598 -0.09187,-0.23804 -0.03068,-0.07907 -0.06367,-0.157396 -0.08863,-0.238543 0.01262,-0.02893 0.01429,-0.03056 -0.0132,-0.07408 -0.09666,-0.191567 -0.19221,-0.383707 -0.291309,-0.574035 -0.289878,-0.516321 -0.590939,-1.026483 -0.914075,-1.522828 -0.550971,-0.826601 -1.137187,-1.629196 -1.686499,-2.456857 0,0 -1.043675,0.61573 -1.043675,0.61573 z" />
    <path
       style="fill:#000000;stroke-width:0.264583"
       id="path530"
       d="m 42.174633,42.83334 c 0.816232,-0.333603 0.377306,-0.190164 1.323261,-0.409935 0,0 0.06385,-0.04851 0.06385,-0.04851 v 0 c -0.805071,0.162118 -0.464936,0.121041 -1.013931,0.168399 0,0 -0.373176,0.290042 -0.373176,0.290042 z" />
    <path
       style="fill:#000000;stroke-width:0.264583"
       id="path532"
       d="m 42.137411,42.319604 c 1.322192,-0.327742 0.647507,-0.225645 2.024767,-0.30152 0,0 0.06461,-0.04749 0.06461,-0.04749 v 0 c -1.201787,0.06607 -0.706556,0.155101 -1.507357,-0.08054 0,0 -0.582018,0.429551 -0.582018,0.429551 z" />
    <path
       style="fill:#000000;stroke-width:0.264583"
       id="path534"
       d="m 49.467759,42.304133 c 0.308155,-0.04693 0.616307,-0.09387 0.924462,-0.1408 0,0 0.06478,-0.04725 0.06478,-0.04725 v 0 c -0.192055,-0.03782 -0.384111,-0.07564 -0.576169,-0.113469 0,0 -0.413073,0.301519 -0.413073,0.301519 z" />
    <path
       style="fill:#000000;stroke-width:0.264583"
       id="path536"
       d="m 54.06695,42.922491 c 1.055936,-0.270851 2.117238,-0.506217 3.189084,-0.704585 0,0 0.06417,-0.04807 0.06417,-0.04807 v 0 c -0.892815,0.09337 -1.796841,0.09317 -2.672196,0.306123 0,0 -0.581057,0.446537 -0.581057,0.446537 z" />
    <path
       style="fill:#000000;stroke-width:0.264583"
       id="path538"
       d="m 61.37472,42.266322 c 1.334683,-0.131834 2.654869,-0.359106 3.986832,-0.516848 0,0 0.06431,-0.04788 0.06431,-0.04788 v 0 c -0.46796,0.05451 -0.933897,0.130757 -1.403882,0.163528 -0.706339,0.04925 -1.421693,-0.05784 -2.128276,0.01746 0,0 -0.518986,0.383751 -0.518986,0.383751 z" />
    <path
       style="fill:#000000;stroke-width:0.264583"
       id="path540"
       d="m 69.801699,42.951447 c 1.783938,-0.03557 3.553021,-0.26067 5.327907,-0.419788 0,0 0.06444,-0.04771 0.06444,-0.04771 v 0 c -0.427688,0.03843 -0.854067,0.09643 -1.283065,0.115279 -1.213988,0.05334 -2.439482,-0.104497 -3.654039,0.01754 0,0 -0.455245,0.334677 -0.455245,0.334677 z" />
    <path
       style="fill:#000000;stroke-width:0.264583"
       id="path542"
       d="m 79.517752,43.030211 c 1.42113,0.124463 2.847137,0.02479 4.270304,0.0076 0,0 0.06481,-0.04721 0.06481,-0.04721 v 0 c -1.316743,0.01611 -2.62234,-0.05924 -3.926726,-0.251105 0,0 -0.408387,0.290722 -0.408387,0.290722 z" />
    <path
       style="fill:#000000;stroke-width:0.264583"
       id="path544"
       d="m 87.296063,43.199801 c 2.093725,-0.105217 4.187709,-0.197549 6.281341,-0.306523 0.358079,-0.02056 0.71616,-0.04109 1.07424,-0.06163 0,0 0.06459,-0.0475 0.06459,-0.0475 v 0 c -0.358071,0.02056 -0.716142,0.04111 -1.074214,0.06167 -2.036744,0.10609 -4.075295,0.14923 -6.114359,0.183722 0,0 -0.231603,0.170267 -0.231603,0.170267 z" />
    <path
       style="fill:#000000;stroke-width:0.264583"
       id="path546"
       d="m 96.980622,42.380288 c 1.746748,0.01889 3.490078,0.117568 5.234128,0.205457 0,0 0.0651,-0.0468 0.0651,-0.0468 v 0 c -1.66243,-0.08369 -3.316956,-0.227999 -4.973017,-0.393848 0,0 -0.326211,0.235193 -0.326211,0.235193 z" />
    <path
       style="fill:#000000;stroke-width:0.264583"
       id="path548"
       d="m 102.86877,43.019146 c 1.51584,-0.140033 3.04009,-0.145658 4.56074,-0.188116 0.95325,-0.03559 1.90701,-0.0498 2.86055,-0.07502 0,0 0.0647,-0.0473 0.0647,-0.0473 v 0 c -0.93613,0.02479 -1.8727,0.05984 -2.80932,0.03781 -1.47784,-7.94e-4 -2.95609,0.02725 -4.43258,0.09182 0,0 -0.24413,0.1808 -0.24413,0.1808 z" />
    <path
       style="fill:#000000;stroke-width:0.264583"
       id="path550"
       d="m 112.8114,42.715785 c 1.55383,-0.08075 3.10738,-0.203234 4.66313,-0.226168 0,0 0.0648,-0.04718 0.0648,-0.04718 v 0 c -1.4729,-5.29e-4 -2.94526,-0.04798 -4.41721,0.04543 0,0 -0.31075,0.227914 -0.31075,0.227914 z" />
    <path
       style="fill:#000000;stroke-width:0.264583"
       id="path552"
       d="m 122.59759,42.423794 c 0.81386,-0.02072 0.37215,-0.02043 1.32508,0.01138 0,0 0.065,-0.04691 0.065,-0.04691 v 0 c -0.9175,-0.03049 -0.51369,0.01093 -1.21448,-0.08986 0,0 -0.17563,0.125389 -0.17563,0.125389 z" />
    <path
       style="fill:#000000;stroke-width:0.264583"
       id="path554"
       d="m 133.98934,41.937445 c -0.46711,0.0098 -0.94315,0.0793 -1.41065,0.04639 -0.0599,0.08014 -0.21579,0.147056 -0.17978,0.240425 0.0334,0.08654 0.18521,0.01066 0.2779,0.014 0.13731,0.0049 0.27467,0.009 0.41206,0.01072 0.6279,0.0079 1.24881,-0.05127 1.87479,-0.09471 0.2177,-0.01847 0.4354,-0.03692 0.65309,-0.05537 0,0 0.0645,-0.04768 0.0645,-0.04768 v 0 c -0.21764,0.01855 -0.43528,0.03708 -0.65291,0.05562 -0.56119,0.01344 -1.10311,-0.01667 -1.66242,-0.05684 -0.12711,-0.0091 -0.25406,-0.02035 -0.38095,-0.03203 -0.0861,-0.0079 -0.17451,-0.04899 -0.25813,-0.02683 -0.15902,0.04214 -0.29673,0.142134 -0.4451,0.213199 0.53779,-0.116324 1.09284,-0.165947 1.63953,-0.216718 0,0 0.0681,-0.05014 0.0681,-0.05014 z" />
    <path
       style="fill:#ff00ff;stroke-width:0.264583"
       id="path556"
       d="m 43.315514,54.842486 c 0.736862,0.285186 1.358635,0.750083 1.848868,1.363493 0.56592,0.768355 0.875313,1.671762 1.183357,2.563791 0.288642,0.813634 0.541261,1.638115 0.734626,2.479421 0.156348,0.689835 0.266108,1.388796 0.39864,2.083356 0.09539,0.454536 0.175482,0.912172 0.272473,1.366356 0.03929,0.193725 0.07297,0.387265 0.1523,0.569161 0.06491,0.168122 0.108072,0.344911 0.161396,0.517821 0.102976,0.343321 0.210791,0.685001 0.319063,1.026684 0.101719,0.276709 0.162119,0.565542 0.245216,0.847781 0.03498,0.143171 0.08806,0.277191 0.16205,0.404042 0.01879,0.0293 0.03637,0.05934 0.05402,0.08905 0.02653,-0.01003 0.02872,0.0069 0.04316,0.02953 -0.01749,0.0081 -0.01111,0.07488 -0.01217,0.103741 -0.0034,0.08037 0.03361,0.159533 0.05962,0.234534 0.03816,0.128927 0.05389,0.260549 0.06204,0.393952 0.02204,0.160163 0.04899,0.320019 0.07987,0.478779 0.03228,0.15375 0.03977,0.311301 0.05721,0.467193 0.107479,0.527363 0.200327,1.0569 0.278032,1.589453 0.134253,0.893392 0.21648,1.79315 0.290328,2.693165 0.07684,1.04971 0.224266,2.092192 0.35288,3.136302 0.150352,0.986533 0.289184,1.973633 0.397364,2.965698 0.04682,0.470011 0.110715,0.938051 0.186584,1.404176 0.05637,0.256847 0.09051,0.517644 0.110054,0.779671 -5.29e-4,0.143293 0.10646,0.241306 0.225197,0.300861 0.08513,0.0382 0.17865,0.04386 0.270336,0.04738 0.755679,-0.02796 1.506535,-0.699688 2.048671,-1.25435 0.451609,-0.500647 0.702244,-1.142664 0.924568,-1.770163 0.153823,-0.415919 0.233833,-0.852762 0.323077,-1.285599 0.06674,-0.372555 0.174969,-0.735505 0.271738,-1.100881 0.06835,-0.268976 0.17893,-0.522619 0.277381,-0.780934 0.03658,-0.114628 0.07391,-0.229312 0.10568,-0.345353 0.0047,-0.06897 0.03438,-0.04561 0.08635,-0.117692 0.165613,-0.267686 0.297204,-0.554138 0.421002,-0.842946 0.09514,-0.220755 0.190418,-0.441005 0.29881,-0.655619 0.117885,-0.24034 0.254921,-0.469371 0.371166,-0.710549 0.117453,-0.255466 0.249943,-0.502648 0.392183,-0.745011 0.188019,-0.28855 0.38303,-0.571466 0.557845,-0.868389 0.111046,-0.193691 0.19236,-0.401551 0.281271,-0.605674 0.04613,-0.105828 0.09914,-0.208455 0.148299,-0.312827 0.09165,-0.03975 0.235222,-0.138243 0.33588,-0.205817 0.46695,-0.324064 0.901444,-0.690362 1.328307,-1.064705 0.36169,-0.297312 0.665572,-0.640791 0.934161,-1.021868 0.265557,-0.425188 0.527193,-0.852506 0.801294,-1.272641 0.394316,-0.691618 0.885311,-1.317423 1.381199,-1.937551 0.579988,-0.665345 1.111295,-1.368544 1.629963,-2.08198 0.488574,-0.680384 1.046853,-1.304822 1.589243,-1.941568 0.546812,-0.672875 1.171681,-1.274223 1.808411,-1.860346 0.638035,-0.563348 1.274369,-1.128874 1.92449,-1.678313 0.432279,-0.353663 0.832781,-0.743426 1.241234,-1.123715 0.863507,-0.754009 1.716971,-1.51757 2.557169,-2.297522 0.662823,-0.606237 1.32769,-1.211025 2.007785,-1.797937 0.71097,-0.620625 1.516264,-1.119528 2.318094,-1.612013 -0.217993,0.12655 -0.597535,0.133987 -0.653978,0.37965 -0.05521,0.240295 0.43085,-0.239911 0.648491,-0.355764 0.760013,-0.404566 1.541753,-0.765148 2.32044,-1.131702 0.862315,-0.400407 1.71308,-0.824561 2.562694,-1.251005 0.946443,-0.48581 1.911887,-0.930172 2.892253,-1.342713 0.852138,-0.343406 1.718233,-0.650447 2.582397,-0.961835 0.915138,-0.338767 1.839814,-0.649771 2.767671,-0.951616 1.067805,-0.342175 2.144474,-0.656013 3.220476,-0.971225 0.960313,-0.283842 1.923381,-0.559117 2.890711,-0.818141 0.563351,-0.152308 1.129712,-0.292646 1.698106,-0.424733 0.659403,-0.168746 1.327227,-0.298644 1.99642,-0.421233 0.61894,-0.121444 1.24239,-0.216831 1.86586,-0.311333 0.50336,-0.07978 1.00352,-0.177929 1.50319,-0.277852 0.34293,-0.06994 0.68666,-0.135808 1.03117,-0.1974 0.27775,-0.04071 0.54855,-0.114713 0.81976,-0.18515 0.12979,-0.0217 0.256,-0.07767 0.38765,-0.08889 0.21538,-0.069 0.43416,-0.131302 0.65299,-0.189871 0.45591,-0.180165 0.85125,-0.508066 1.24791,-0.786077 0,0 -0.0747,0.02908 -0.0747,0.02908 v 0 c 0.0423,-0.05461 0.25601,-0.231671 0.0904,-0.208991 -0.21169,0.04856 -0.41874,0.117948 -0.63179,0.155794 -0.1258,0.05311 -0.26751,0.07374 -0.39951,0.113673 -0.26847,0.06996 -0.53492,0.150479 -0.80955,0.193543 -0.35153,0.06105 -0.70055,0.135287 -1.05004,0.206872 -0.49502,0.09998 -0.99118,0.19285 -1.48932,0.276011 -0.62863,0.101243 -1.25741,0.201716 -1.88325,0.319341 -0.666,0.121209 -1.33282,0.238562 -1.989249,0.406136 -0.574033,0.134376 -1.149202,0.263385 -1.715022,0.430519 -0.972648,0.267306 -1.941414,0.548445 -2.910295,0.829046 -1.076441,0.317849 -2.155092,0.628742 -3.224762,0.968896 -0.919935,0.29981 -1.842299,0.592762 -2.749172,0.930801 -0.874601,0.317575 -1.749354,0.635167 -2.614742,0.977292 -0.977834,0.408636 -1.943955,0.843055 -2.887776,1.325716 -0.857986,0.429929 -1.714876,0.862203 -2.58281,1.271881 -1.682377,0.794118 -3.354644,1.607944 -4.928021,2.609278 -0.821475,0.508022 -1.649206,1.019945 -2.374444,1.662497 -0.653204,0.583848 -1.295213,1.180256 -1.939076,1.77434 -0.857401,0.792433 -1.736389,1.559171 -2.619261,2.322968 -0.409152,0.377108 -0.816235,0.756737 -1.240589,1.116893 -0.633116,0.550905 -1.261608,1.107216 -1.885352,1.668696 -0.640784,0.595312 -1.272172,1.202798 -1.821199,1.885995 -0.537424,0.636071 -1.079767,1.269256 -1.568029,1.94464 -0.517237,0.70264 -1.043355,1.398108 -1.606735,2.0648 -0.507397,0.63377 -1.013111,1.270825 -1.424302,1.973149 -0.271474,0.423365 -0.529929,0.855313 -0.815134,1.269611 -0.272172,0.365593 -0.585655,0.691615 -0.936466,0.983684 -0.443408,0.380502 -0.900862,0.745849 -1.38978,1.066818 -0.135781,0.08858 -0.285237,0.158676 -0.352245,0.307229 -0.05671,0.103896 -0.09941,0.215035 -0.147074,0.32317 -0.08165,0.198575 -0.169664,0.394808 -0.279289,0.57984 -0.175704,0.293108 -0.370406,0.573801 -0.548896,0.865176 -0.14849,0.251691 -0.299591,0.501703 -0.417899,0.769536 -0.123283,0.240503 -0.266795,0.470193 -0.38154,0.715251 -0.106212,0.21708 -0.195839,0.441507 -0.292907,0.662754 -0.124968,0.285401 -0.261919,0.565121 -0.433276,0.826119 -0.04476,0.0917 -0.03983,0.100127 -0.0382,0.157687 -0.01318,0.10179 -0.03396,0.201541 -0.07097,0.297862 -0.09833,0.258615 -0.187428,0.520118 -0.255254,0.788692 -0.09989,0.366924 -0.199358,0.73425 -0.266422,1.108953 -0.08697,0.423447 -0.1685,0.849588 -0.315931,1.257348 -0.222978,0.619352 -0.486564,1.240163 -0.966655,1.707126 -0.0663,0.05883 -0.129824,0.120943 -0.198888,0.176501 -0.831003,0.668501 1.586188,-1.068377 0.971918,-0.49679 -0.05823,-0.0042 -0.116599,-0.01294 -0.174617,-0.02215 -0.05687,-0.05049 -0.101359,-0.09408 -0.102653,-0.176514 -0.03898,-0.260879 -0.0781,-0.521962 -0.138761,-0.778907 -0.09553,-0.452022 -0.171087,-0.908277 -0.237876,-1.365361 -0.137335,-0.98334 -0.29708,-1.963343 -0.438317,-2.946127 -0.15213,-1.034992 -0.294246,-2.07264 -0.372999,-3.116181 -0.07313,-0.905015 -0.152564,-1.809808 -0.280249,-2.70909 -0.07312,-0.536164 -0.163571,-1.069033 -0.250561,-1.602901 -0.02495,-0.155625 -0.04051,-0.313113 -0.08626,-0.464569 -0.03335,-0.151241 -0.06112,-0.304101 -0.07979,-0.457858 -0.0164,-0.142492 -0.0555,-0.280692 -0.09406,-0.418569 -0.01976,-0.06284 -0.04178,-0.123769 -0.03839,-0.190195 -0.0039,-0.06096 -0.0024,-0.124225 -0.03206,-0.179393 -0.02437,-0.03645 -0.05402,-0.07023 -0.0719,-0.110384 -0.0059,-0.0024 -0.01445,-0.0016 -0.01773,-0.007 -0.06799,-0.113884 -0.111101,-0.240368 -0.149085,-0.366831 -0.08409,-0.282493 -0.153855,-0.569254 -0.252251,-0.847445 -0.108765,-0.342138 -0.200027,-0.688869 -0.297407,-1.034386 -0.05009,-0.181171 -0.08302,-0.369646 -0.157531,-0.542149 -0.07213,-0.171421 -0.102317,-0.356386 -0.148788,-0.535697 -0.09785,-0.450546 -0.204798,-0.898999 -0.299709,-1.350216 -0.152922,-0.687705 -0.269857,-1.383388 -0.446855,-2.065716 -0.23513,-0.829326 -0.524677,-1.640935 -0.812731,-2.453106 -0.341583,-0.892802 -0.702927,-1.791425 -1.266627,-2.571027 -0.54682,-0.641208 -1.243378,-1.067205 -2.050852,-1.316101 0,0 -0.970383,0.655838 -0.970383,0.655838 z" />
    <path
       style="fill:#ff00ff;stroke-width:0.264583"
       id="path562"
       d="m 101.86856,42.378114 c 0.73606,0.01802 1.47063,0.06725 2.2045,0.123891 0.3516,0.02061 0.70081,0.06802 1.052,0.09263 0.29897,0.01378 0.59832,0.01172 0.89743,0.0051 0.3595,-0.01937 0.71948,-0.02706 1.07891,-0.04733 0.49924,-0.03316 0.9976,-0.07774 1.49571,-0.124661 0.6879,-0.05674 1.37693,-0.09781 2.06571,-0.141986 0.60215,-0.04704 1.20577,-0.06475 1.80894,-0.09154 0.3161,-0.01508 0.63245,-0.02273 0.9489,-0.02289 0.21065,-5.29e-4 0.42131,-0.0011 0.63196,-0.0029 0.47324,-0.01233 0.94664,-0.01942 1.41966,-0.03874 0.67021,-0.03634 1.33886,-0.0945 2.00904,-0.131627 0.88667,-0.04847 1.77452,-0.06091 2.66214,-0.07907 0.7288,-0.01527 1.45783,-0.02339 2.18546,-0.06985 0.5814,-0.04641 1.1616,-0.102979 1.74403,-0.135541 0.50584,-0.02781 1.01254,-0.02776 1.51893,-0.03346 0.63326,-0.0024 1.26649,-0.0051 1.89974,-0.009 0.61491,7.93e-4 1.22981,0.0021 1.84471,0.0053 0.46954,0.0042 0.93909,-0.0045 1.40861,0.0011 0.90737,7.93e-4 1.80943,0.08732 2.70804,0.205028 0.50292,0.03781 1.0385,0.207997 1.54619,0.100594 0.29736,-0.06291 0.57804,-0.188121 0.86706,-0.282183 0,0 0.0646,-0.04746 0.0646,-0.04746 v 0 c -0.0476,-0.07679 -0.0688,-0.178702 -0.14291,-0.230381 -0.35486,-0.247366 -0.90545,-0.139734 -1.29398,-0.274997 -0.88214,-0.131498 -1.76808,-0.226264 -2.65988,-0.259427 -0.46831,-0.0084 -0.93672,-0.0076 -1.40509,-0.0062 -0.61927,0.0029 -1.23854,0.004 -1.85781,0.0043 -0.62545,-0.0045 -1.25088,-0.009 -1.87635,-0.0089 -0.50958,-0.0013 -1.01917,0.0093 -1.5283,0.0315 -0.583,0.03363 -1.1647,0.08178 -1.74619,0.135218 -0.73418,0.05328 -1.46958,0.08471 -2.20574,0.09258 -0.88417,0.01892 -1.7687,0.02866 -2.65233,0.06626 -0.66544,0.03634 -1.33012,0.08324 -1.9953,0.123632 -0.4679,0.02066 -0.93601,0.02756 -1.40428,0.03479 -0.21061,-0.0021 -0.42128,-0.0042 -0.63188,-1.03e-4 -0.3264,0.01029 -0.65284,0.0209 -0.97892,0.039 -0.61685,0.03583 -1.23369,0.07365 -1.84991,0.119375 -0.70077,0.04679 -1.40131,0.09611 -2.10048,0.163454 -0.50287,0.0455 -1.00531,0.09616 -1.50859,0.136478 -0.36476,0.0356 -0.73089,0.04984 -1.09686,0.06788 -0.30403,0.01058 -0.60795,0.01603 -0.91222,0.01392 -0.37795,0.0044 -0.75584,0.0026 -1.13287,-0.0288 -0.74864,-0.04428 -1.49869,-0.05903 -2.24763,-0.09781 0,0 -0.83478,0.602686 -0.83478,0.602686 z" />
    <path
       style="fill:#ff00ff;stroke-width:0.264583"
       id="path564"
       d="m 67.371782,76.394687 c -1.137147,-0.400542 -2.328246,-0.794993 -3.549605,-0.785296 -0.248597,0.0019 -0.495281,0.04376 -0.742921,0.06564 -1.142717,0.417721 -2.535341,0.943951 -3.02809,2.144731 -0.358857,0.8745 -0.131043,1.531233 0.167116,2.356101 0.164791,0.21953 0.300003,0.464762 0.494374,0.65859 0.994251,0.991468 2.41804,0.809099 3.614531,0.323437 0.33468,-0.135847 0.643978,-0.327342 0.965968,-0.491013 1.665978,-0.883439 2.955075,-2.082522 3.807393,-3.750006 0.135753,-0.53294 0.297863,-1.035188 0.546452,-1.524553 0.281945,-0.524647 0.868019,-1.294876 -1.215191,0.61322 -0.103839,0.09511 -0.0132,0.281323 -0.01794,0.422055 -0.0069,0.20402 -0.01119,0.408117 -0.01678,0.612174 -0.02795,1.404083 -0.06242,2.808489 -0.05113,4.212934 0.05595,0.857483 -0.02582,1.207037 1.299713,-0.09472 0.103677,-0.101817 -0.01966,-0.290025 -0.02405,-0.435271 -0.007,-0.233124 -0.0068,-0.466413 -0.01016,-0.699619 0.08512,-1.314659 -0.172974,-2.975025 0.391811,-4.204306 0.08414,-0.183144 0.21831,-0.338865 0.327467,-0.508299 0.148645,-0.113482 0.263493,-0.381537 0.445936,-0.340447 0.163725,0.03687 -0.468394,0.243337 -0.349813,0.362095 0.158721,0.158962 0.448344,-0.04769 0.672798,-0.03862 0.667192,0.02696 1.215975,0.236302 1.789991,0.550585 0.124783,0.13299 0.271725,0.248221 0.374351,0.39897 0.813353,1.194737 -0.203195,2.489552 -0.900388,3.429889 -0.659177,0.687515 -0.740783,0.821672 -1.471136,1.399855 -0.158199,0.125241 -0.525962,0.479732 -0.832789,0.491276 -0.165754,0.0062 -0.331184,-0.01924 -0.496776,-0.02885 0,0 -0.06515,0.04674 -0.06515,0.04674 v 0 c 0.166248,0.0105 0.337039,0.07148 0.498747,0.03149 1.459913,-0.361132 2.620889,-1.387065 3.597302,-2.47324 0.200456,-0.284768 0.42705,-0.552826 0.601371,-0.854302 0.466098,-0.806085 0.711771,-1.864051 0.05867,-2.652806 -0.126667,-0.152976 -0.301598,-0.258503 -0.452398,-0.387754 -1.714936,-0.820706 -2.945262,-0.888754 -4.512162,0.525266 -0.105066,0.178348 -0.2351,0.344176 -0.315198,0.535046 -0.535969,1.277223 -0.321402,2.916312 -0.444928,4.266777 -0.01072,0.239691 -0.01532,0.479734 -0.03211,0.719079 -0.01077,0.153715 -0.204546,0.464709 -0.05054,0.459504 1.355595,-0.04579 1.195861,-0.390051 1.213824,-1.169683 -0.01675,-1.403374 -0.03013,-2.807597 0.06202,-4.209208 0.01323,-0.207039 0.02514,-0.414168 0.03969,-0.621118 0.01003,-0.142637 0.177062,-0.429646 0.03409,-0.427611 -2.022961,0.02878 -1.320522,0.07062 -1.291108,0.61238 0.0172,0.526982 -0.148167,0.968201 -0.403683,1.432232 -0.366633,0.721596 -0.800735,1.384628 -1.376516,1.961584 -0.214651,0.215091 -0.474842,0.383545 -0.67741,0.610053 -0.02188,0.02447 0.05197,0.04016 0.07796,0.06024 -0.300739,0.155027 -0.588992,0.33714 -0.902213,0.465076 -1.090756,0.445524 -2.422568,0.622157 -3.290284,-0.348615 -0.172474,-0.192958 -0.278165,-0.436512 -0.417248,-0.654769 -0.248309,-0.823942 -0.421109,-1.442908 -0.01183,-2.274925 0.109201,-0.221988 0.634899,-0.447942 0.438703,-0.598646 -0.226701,-0.174138 -0.511038,0.279432 -0.792996,0.326504 -0.244044,0.04074 0.450551,-0.204632 0.675828,-0.306946 0.249989,-0.03381 0.498022,-0.08876 0.749969,-0.101439 1.22143,-0.06149 2.412447,0.326647 3.54956,0.721701 0,0 1.246907,-0.833149 1.246907,-0.833149 z" />
    <path
       style="fill:#ff00ff;stroke-width:0.264583"
       id="path566"
       d="m 78.236505,75.419891 c -0.513218,1.762329 -0.818102,3.574812 -1.085522,5.387787 -0.01662,0.488389 -0.375042,1.644327 0.03656,2.070108 0.261318,0.270322 0.57509,0.232664 0.918935,0.274174 1.710404,-0.128172 3.448076,-0.226271 5.120973,-0.623974 0.962017,-0.401368 0.549164,-0.283155 1.21116,-0.439201 0,0 0.06438,-0.04779 0.06438,-0.04779 v 0 c -0.294925,-0.03703 -0.199376,0.04352 -0.261937,-0.268216 -1.56645,-0.10414 -3.121454,0.445682 -4.69559,0.359169 -0.180623,-0.02048 -0.579641,-0.02164 -0.756036,-0.170664 -0.400023,-0.337921 -0.05771,-1.513652 -0.06408,-1.927876 0.250378,-1.81605 0.572284,-3.629768 1.139492,-5.377079 0,0 -1.628333,0.763558 -1.628333,0.763558 z" />
    <path
       style="fill:#000000;stroke-width:0.264583"
       id="path568"
       d="m 62.291621,32.747614 c -0.212829,-0.483484 -0.15743,-1.119153 -0.30747,-1.601306 -0.473236,0.328361 -1.000895,0.589645 -1.419709,0.985081 -0.09246,0.0873 -0.02045,0.25355 -0.02668,0.380563 -0.04499,0.916641 -0.0335,1.836515 -0.04601,2.753974 -0.03952,1.171358 -0.03518,2.343237 -0.02056,3.514926 0.05627,0.208198 -0.08558,1.151006 0.04405,1.286605 0.523531,-0.299207 1.085162,-0.539893 1.57059,-0.897617 0.06698,-0.04936 -0.0096,-0.16614 -0.01434,-0.249214 -0.0083,-0.146005 -0.01722,-0.291978 -0.0249,-0.43802 -0.03698,-0.704197 -0.06145,-1.396059 -0.04852,-2.101586 0.04774,-1.396524 0.145708,-2.805967 0.531915,-4.154448 0.05696,-0.110918 0.09642,-0.232738 0.170879,-0.332753 0.06625,-0.08899 0.343022,-0.277034 0.24475,-0.225549 -0.290589,0.152244 -0.611143,0.285541 -0.828408,0.531339 -0.103714,0.117337 0.301593,-0.0883 0.456589,-0.110691 0.475954,-0.06877 0.686213,-0.03138 1.165331,-0.0028 1.066231,0.16185 1.679072,0.338026 1.984645,1.439457 -0.0028,0.145637 0.02117,0.294254 -0.0083,0.436915 -0.163838,0.794276 -0.807149,1.527291 -1.453772,1.975773 -0.201597,0.139822 -0.425368,0.244597 -0.638053,0.366892 0.248997,-0.173389 0.676034,-0.225163 0.746987,-0.52017 0.05579,-0.231955 -0.449492,0.160504 -0.677423,0.230954 -0.982821,0.303769 -0.277177,0.05007 -1.205071,0.320662 -0.571098,0.166545 -0.617858,0.207296 -1.184111,0.448199 -0.116224,0.02686 -0.232445,0.05371 -0.348668,0.08056 0,0 -0.06523,0.04662 -0.06523,0.04662 v 0 c 0.02941,0.03816 0.05882,0.07633 0.08823,0.114488 0.0026,0.06646 -0.04219,0.155585 0.0079,0.199376 0.131167,0.114748 0.722892,-0.02127 0.758486,-0.0284 1.272763,-0.254842 2.315168,-0.784545 3.445042,-1.496626 0.211373,-0.132551 0.435025,-0.247288 0.634122,-0.397653 0.628544,-0.474702 1.225573,-1.2231 1.254424,-2.045153 0.0053,-0.150341 -0.04,-0.298198 -0.06001,-0.447299 -0.05448,-0.13236 -0.09092,-0.273677 -0.163428,-0.397081 -0.432649,-0.736325 -1.34349,-0.91172 -2.112782,-1.04398 -1.341948,-0.137255 -2.827242,-0.08616 -3.429053,1.438344 -0.322768,1.369962 -0.408146,2.780109 -0.517906,4.17962 -0.04798,0.74019 -0.110797,1.4785 -0.175141,2.217401 -0.01368,0.156986 -0.02907,0.313849 -0.04756,0.47034 -0.01037,0.08785 -0.123894,0.287422 -0.03902,0.262493 0.544034,-0.159787 1.031854,-0.470421 1.547781,-0.705631 0.120848,-0.198755 -0.114536,-1.01165 -0.04573,-1.253397 -0.04427,-1.154274 -0.04445,-2.309167 -0.06767,-3.463941 -0.0019,-0.722355 0.0033,-1.4439 0.02021,-2.166088 0.0045,-0.190212 0.007,-0.380503 0.01548,-0.570577 0.0053,-0.118996 0.142544,-0.380354 0.02585,-0.356409 -0.485092,0.09954 -0.897737,0.418282 -1.346605,0.627422 0.02096,-0.02914 0.02782,-0.09516 0.06288,-0.08743 0.188949,0.04164 0.446056,1.160047 0.508944,1.350664 0,0 1.037008,-0.564827 1.037008,-0.564827 z" />
    <path
       style="fill:#000000;stroke-width:0.264583"
       id="path570"
       d="m 76.456005,32.921207 c -1.338083,-0.305467 -2.649678,-0.519827 -4.022411,-0.391708 -0.598373,0.100198 -1.157298,0.314481 -1.673362,0.631468 -1.278088,0.785042 -1.785763,0.931405 -2.484607,1.963714 -0.491283,0.897196 -0.505931,1.848773 -0.275264,2.819754 0.386127,0.973762 1.18174,1.605542 2.095846,2.05396 1.437447,0.593122 2.605844,-0.07131 3.946091,-0.604961 0,0 0.06303,-0.04956 0.06303,-0.04956 v 0 c -0.310962,0.124338 -0.604388,0.307843 -0.932884,0.373018 -0.248028,0.04921 -1.302517,-0.625944 -1.597932,-0.690901 -0.856756,-0.439923 -1.634647,-1.001152 -1.992374,-1.93465 -0.219794,-0.921305 -0.177996,-1.833126 0.308618,-2.670384 0.08791,-0.125169 0.166312,-0.257595 0.263739,-0.375512 0.101942,-0.123383 0.488559,-0.382315 0.332619,-0.346276 -0.367686,0.08497 -0.662673,0.365683 -1.013897,0.503724 -0.180078,0.07078 0.324999,-0.211177 0.496665,-0.300437 0.525884,-0.273439 0.627079,-0.270145 1.202852,-0.43453 0.227269,-0.03131 0.452818,-0.07995 0.681807,-0.09393 1.112565,-0.06796 2.229541,0.203491 3.307599,0.434692 0,0 1.293863,-0.887481 1.293863,-0.887481 z" />
    <path
       style="fill:#000000;stroke-width:0.264583"
       id="path572"
       d="m 71.919356,39.761249 c 0.798401,0.06331 1.596017,0.09479 2.395474,0.04088 0.408244,-0.03753 0.818533,-0.082 1.212021,-0.201197 0.279297,-0.103868 0.544492,-0.241694 0.807609,-0.380609 0.24655,-0.06664 0.532638,-0.596524 0.747141,-0.398108 0,0 0.06979,-0.03948 0.06979,-0.03948 v 0 c -0.0049,-0.03895 -0.03678,-0.08436 -0.01474,-0.116856 0.07092,-0.104566 0.183555,-0.173734 0.272622,-0.263351 0.01638,-0.01648 0.06643,-0.05189 0.04335,-0.05457 -0.03478,-0.004 -0.06203,0.03253 -0.09304,0.04879 -0.257614,0.135366 -0.515567,0.270592 -0.782539,0.386892 -0.393166,0.15094 -0.815954,0.2012 -1.231025,0.256625 -0.791752,0.07319 -1.58787,0.07653 -2.377842,-0.02674 0,0 -1.048819,0.74772 -1.048819,0.74772 z" />
  </g>
</svg>
